<svg xml:space="preserve" style="max-height: 500px" viewBox="9 41 491 402" y="0px" x="0px" xmlns:xlink="http://www.w3.org/1999/xlink" xmlns="http://www.w3.org/2000/svg" version="1.1" width="491" height="402">
<g id="BACKGROUND">
	<g id="XMLID_85_">
		<g id="XMLID_86_">
			<rect height="500" width="500" style="fill:#191919;" id="XMLID_87_"/>
		</g>
	</g>
</g>
<g id="OBJECTS">
	<g id="XMLID_556_">
		<g id="XMLID_5101_">
			<g id="XMLID_5505_">
				<rect height="4.145" width="8.672" style="fill:#EBEBEB;" y="313.959" x="120.9" id="XMLID_5729_"/>
				<path d="M127.689,296.219v-1.238h-8.674v12.479h8.674v-2.566h27.439v-8.674H127.689z&#10;&#9;&#9;&#9;&#9;&#9; M132.341,299.205h-1.766v-2.016h1.766V299.205z M150.202,303.236h-7.059v-2.015h7.059V303.236z" style="fill:#EBEBEB;" id="XMLID_5724_"/>
				<rect height="6.971" width="8.672" style="fill:#EBEBEB;" y="286.466" x="119.958" id="XMLID_5723_"/>
				<rect height="1.073" width="8.672" style="fill:#EBEBEB;" y="281.507" x="122.312" id="XMLID_5722_"/>
				<rect height="1.073" width="3.194" style="fill:#EBEBEB;" y="268.245" x="114.594" id="XMLID_5721_"/>
				<rect height="1.073" width="3.194" style="fill:#EBEBEB;" y="270.261" x="155.798" id="XMLID_5720_"/>
				<rect height="1.073" width="3.194" style="fill:#EBEBEB;" y="297.913" x="153.538" id="XMLID_5719_"/>
				<rect height="1.073" width="3.194" style="fill:#EBEBEB;" y="300.684" x="158.75" id="XMLID_5718_"/>
				<rect height="1.073" width="3.194" style="fill:#EBEBEB;" y="289.166" x="131.352" id="XMLID_5717_"/>
				<rect height="1.073" width="3.194" style="fill:#EBEBEB;" y="315.495" x="249.289" id="XMLID_5716_"/>
				<rect height="1.073" width="3.194" style="fill:#EBEBEB;" y="316.031" x="355.752" id="XMLID_5715_"/>
				<rect height="1.073" width="3.194" style="fill:#EBEBEB;" y="316.031" x="227.203" id="XMLID_5714_"/>
				<rect height="0.499" width="20.332" style="fill:#EBEBEB;" y="291.718" x="122.174" id="XMLID_5713_"/>
				<rect height="0.499" width="20.332" style="fill:#EBEBEB;" y="277.466" x="115.868" id="XMLID_5712_"/>
				<rect height="0.499" width="20.332" style="fill:#EBEBEB;" y="324" x="124.38" id="XMLID_5711_"/>
				<rect height="0.499" width="20.332" style="fill:#EBEBEB;" y="309.703" x="153.538" id="XMLID_5710_"/>
				<rect height="0.499" width="20.332" style="fill:#EBEBEB;" y="309.703" x="116.254" id="XMLID_5709_"/>
				<rect height="0.499" width="20.332" style="fill:#EBEBEB;" y="309.454" x="274.03" id="XMLID_5708_"/>
				<rect height="0.499" width="20.332" style="fill:#EBEBEB;" y="327.911" x="263.864" id="XMLID_5707_"/>
				<rect height="0.499" width="20.332" style="fill:#EBEBEB;" y="322.481" x="313.674" id="XMLID_5706_"/>
				<rect height="0.499" width="20.332" style="fill:#EBEBEB;" y="323.242" x="338.066" id="XMLID_5705_"/>
				<rect height="0.499" width="20.332" style="fill:#EBEBEB;" y="324.249" x="241.279" id="XMLID_5704_"/>
				<rect height="0.499" width="20.332" style="fill:#EBEBEB;" y="297.95" x="228.799" id="XMLID_5703_"/>
				<rect height="0.499" width="20.332" style="fill:#EBEBEB;" y="284.273" x="319.918" id="XMLID_5702_"/>
				<rect height="0.499" width="20.332" style="fill:#EBEBEB;" y="276.967" x="335.614" id="XMLID_5701_"/>
				<rect height="0.499" width="20.332" style="fill:#EBEBEB;" y="270.989" x="312.679" id="XMLID_5700_"/>
				<rect height="0.499" width="20.332" style="fill:#EBEBEB;" y="271.554" x="265.574" id="XMLID_5699_"/>
				<rect height="0.499" width="20.332" style="fill:#EBEBEB;" y="277.216" x="214.21" id="XMLID_5698_"/>
				<rect height="0.499" width="20.332" style="fill:#EBEBEB;" y="269.541" x="177.758" id="XMLID_5697_"/>
				<rect height="0.499" width="20.332" style="fill:#EBEBEB;" y="269.79" x="161.698" id="XMLID_5696_"/>
				<rect height="0.499" width="20.332" style="fill:#EBEBEB;" y="289.702" x="361.174" id="XMLID_5695_"/>
				<rect height="0.499" width="20.332" style="fill:#EBEBEB;" y="297.95" x="339.008" id="XMLID_5694_"/>
				<polygon points="127.688,275.736 155.128,275.736 155.128,274.94 119.016,274.94 &#10;&#9;&#9;&#9;&#9;&#9;119.016,279.492 127.688,279.492" style="fill:#EBEBEB;" id="XMLID_5693_"/>
				<rect height="3.085" width="36.112" style="fill:#EBEBEB;" y="331.007" x="119.016" id="XMLID_5692_"/>
				<path d="M119.015,326.866v2.595h36.113v-2.595H119.015z M142.503,329.168h-3.532v-2.015&#10;&#9;&#9;&#9;&#9;&#9;h3.532V329.168z" style="fill:#EBEBEB;" id="XMLID_5689_"/>
				<path d="M119.015,267.066v6.329h36.113v-6.329H119.015z M127.119,270.796h-3.268v-2.016&#10;&#9;&#9;&#9;&#9;&#9;h3.268V270.796z" style="fill:#EBEBEB;" id="XMLID_5686_"/>
				<rect height="3.654" width="8.672" style="fill:#EBEBEB;" y="321.664" x="119.016" id="XMLID_5685_"/>
				<rect height="4.145" width="8.672" style="fill:#EBEBEB;" y="313.959" x="168.531" id="XMLID_5684_"/>
				<rect height="6.971" width="8.672" style="fill:#EBEBEB;" y="286.466" x="167.59" id="XMLID_5683_"/>
				<rect height="1.073" width="8.672" style="fill:#EBEBEB;" y="281.507" x="169.944" id="XMLID_5682_"/>
				<path d="M175.32,279.492v-3.715h7.917c3.665,0,6.829,1.24,9.497,3.715h10.833&#10;&#9;&#9;&#9;&#9;&#9;c-0.827-1.603-1.867-3.121-3.119-4.553h-33.801v4.553H175.32z" style="fill:#EBEBEB;" id="XMLID_5681_"/>
				<polygon points="192.125,326.864 193.749,329.461 204.152,329.461 202.467,326.864" style="fill:#EBEBEB;" id="XMLID_5680_"/>
				<path d="M208.158,282.579c-0.119-0.361-0.247-0.719-0.385-1.073h-9.913&#10;&#9;&#9;&#9;&#9;&#9;c0.263,0.35,0.507,0.707,0.732,1.073H208.158z" style="fill:#EBEBEB;" id="XMLID_5679_"/>
				<polygon points="198.666,318.104 195.976,313.959 185.943,313.959 188.534,318.104" style="fill:#EBEBEB;" id="XMLID_5678_"/>
				<rect height="2.598" width="8.672" style="fill:#EBEBEB;" y="326.864" x="166.648" id="XMLID_5677_"/>
				<rect height="3.654" width="8.672" style="fill:#EBEBEB;" y="321.664" x="166.648" id="XMLID_5676_"/>
				<path d="M196.341,294.981c-0.688,1.771-1.752,3.376-3.197,4.822&#10;&#9;&#9;&#9;&#9;&#9;c-2.75,2.75-6.051,4.125-9.908,4.125h-7.916v-8.947h-8.674v12.479h31.141c0.49-0.452,1.003-0.942,1.535-1.479&#10;&#9;&#9;&#9;&#9;&#9;c3.178-3.193,5.208-6.861,6.117-11H196.341z M171.864,300.212h-1.761v-2.015h1.761V300.212z M195.296,304.243v-2.015h4.262&#10;&#9;&#9;&#9;&#9;&#9;v2.015H195.296z" style="fill:#EBEBEB;" id="XMLID_5671_"/>
				<rect height="3.085" width="8.672" style="fill:#EBEBEB;" y="331.007" x="166.648" id="XMLID_5670_"/>
				<polygon points="196.643,334.092 207.158,334.092 205.156,331.007 194.715,331.007" style="fill:#EBEBEB;" id="XMLID_5669_"/>
				<path d="M206.702,286.466h-8.864c0.249,1.064,0.376,2.178,0.376,3.346&#10;&#9;&#9;&#9;&#9;&#9;c0,1.27-0.148,2.478-0.438,3.626h8.889c0.173-1.173,0.263-2.381,0.263-3.626C206.927,288.666,206.851,287.552,206.702,286.466z" style="fill:#EBEBEB;" id="XMLID_5668_"/>
				<polygon points="188.875,321.664 191.159,325.318 201.464,325.318 199.092,321.664" style="fill:#EBEBEB;" id="XMLID_5667_"/>
				<path d="M185.667,267.064h-19.02v6.33h32.332&#10;&#9;&#9;&#9;&#9;&#9;C195.329,269.881,190.892,267.769,185.667,267.064z" style="fill:#EBEBEB;" id="XMLID_5666_"/>
				<rect height="2.598" width="8.672" style="fill:#EBEBEB;" y="326.864" x="215.704" id="XMLID_5665_"/>
				<polygon points="245.7,334.092 256.214,334.092 254.212,331.007 243.771,331.007" style="fill:#EBEBEB;" id="XMLID_5664_"/>
				<path d="M246.832,293.437h8.889c0.173-1.173,0.263-2.381,0.263-3.626&#10;&#9;&#9;&#9;&#9;&#9;c0-1.145-0.076-2.26-0.225-3.346h-8.865c0.249,1.064,0.376,2.178,0.376,3.346C247.27,291.082,247.122,292.29,246.832,293.437z" style="fill:#EBEBEB;" id="XMLID_5663_"/>
				<polygon points="241.182,326.864 242.805,329.461 253.209,329.461 251.523,326.864" style="fill:#EBEBEB;" id="XMLID_5662_"/>
				<path d="M234.724,267.066h-19.02v6.329h32.332&#10;&#9;&#9;&#9;&#9;&#9;C244.387,269.882,239.946,267.768,234.724,267.066z M232.454,270.796v-2.016h3.527v2.016H232.454z" style="fill:#EBEBEB;" id="XMLID_5659_"/>
				<rect height="4.145" width="8.672" style="fill:#EBEBEB;" y="313.959" x="217.588" id="XMLID_5658_"/>
				<rect height="1.073" width="8.672" style="fill:#EBEBEB;" y="281.507" x="219" id="XMLID_5657_"/>
				<path d="M257.215,282.579c-0.119-0.361-0.247-0.719-0.385-1.073h-9.913&#10;&#9;&#9;&#9;&#9;&#9;c0.264,0.35,0.507,0.707,0.732,1.073H257.215z" style="fill:#EBEBEB;" id="XMLID_5656_"/>
				<polygon points="237.932,321.664 240.215,325.318 250.52,325.318 248.149,321.664" style="fill:#EBEBEB;" id="XMLID_5655_"/>
				<rect height="3.654" width="8.672" style="fill:#EBEBEB;" y="321.664" x="215.704" id="XMLID_5654_"/>
				<path d="M245.395,294.981c-0.687,1.771-1.747,3.376-3.193,4.822&#10;&#9;&#9;&#9;&#9;&#9;c-2.75,2.75-6.056,4.125-9.908,4.125h-7.916v-8.947h-8.674v12.479h31.141c0.49-0.452,1.003-0.942,1.535-1.479&#10;&#9;&#9;&#9;&#9;&#9;c3.174-3.193,5.208-6.861,6.112-11H245.395z M222.806,299.205h-1.766v-2.016h1.766V299.205z M247.636,301.22v-2.015h1.766v2.015&#10;&#9;&#9;&#9;&#9;&#9;H247.636z" style="fill:#EBEBEB;" id="XMLID_5649_"/>
				<polygon points="247.722,318.104 245.032,313.959 235,313.959 237.59,318.104" style="fill:#EBEBEB;" id="XMLID_5648_"/>
				<path d="M224.376,279.492v-3.715h7.917c3.665,0,6.829,1.24,9.497,3.715h10.833&#10;&#9;&#9;&#9;&#9;&#9;c-0.827-1.603-1.867-3.121-3.119-4.553h-33.801v4.553H224.376z" style="fill:#EBEBEB;" id="XMLID_5647_"/>
				<rect height="6.971" width="8.672" style="fill:#EBEBEB;" y="286.466" x="216.646" id="XMLID_5646_"/>
				<rect height="3.085" width="8.672" style="fill:#EBEBEB;" y="331.007" x="215.704" id="XMLID_5645_"/>
				<path d="M318.449,318.104h10.988c0.818-1.338,1.525-2.721,2.133-4.145h-9.872&#10;&#9;&#9;&#9;&#9;&#9;C320.783,315.41,319.699,316.792,318.449,318.104z" style="fill:#EBEBEB;" id="XMLID_5644_"/>
				<path d="M325.038,321.664h-12.581c-2.447,1.717-5.101,2.937-7.964,3.654h17.192&#10;&#9;&#9;&#9;&#9;&#9;c0.198-0.19,0.398-0.372,0.594-0.568C323.276,323.753,324.189,322.722,325.038,321.664z" style="fill:#EBEBEB;" id="XMLID_5643_"/>
				<path d="M283.088,282.579c0.053-0.054,0.102-0.109,0.155-0.162&#10;&#9;&#9;&#9;&#9;&#9;c0.313-0.314,0.631-0.617,0.953-0.911h-11.518c-0.241,0.353-0.467,0.713-0.692,1.073H283.088z" style="fill:#EBEBEB;" id="XMLID_5642_"/>
				<path d="M325.171,279.492c-0.885-1.117-1.843-2.205-2.892-3.254&#10;&#9;&#9;&#9;&#9;&#9;c-0.449-0.449-0.905-0.88-1.366-1.299h-22.888c5.508,0,10.381,1.523,14.625,4.553H325.171z" style="fill:#EBEBEB;" id="XMLID_5641_"/>
				<path d="M270.876,279.492h12.521c4.244-3.03,9.117-4.552,14.625-4.553h-22.888&#10;&#9;&#9;&#9;&#9;&#9;c-0.461,0.419-0.917,0.85-1.366,1.299C272.718,277.288,271.761,278.375,270.876,279.492z" style="fill:#EBEBEB;" id="XMLID_5640_"/>
				<path d="M271.009,321.664c0.849,1.058,1.762,2.089,2.759,3.086&#10;&#9;&#9;&#9;&#9;&#9;c0.195,0.195,0.396,0.378,0.594,0.568h17.212c-2.857-0.717-5.508-1.936-7.957-3.654H271.009z" style="fill:#EBEBEB;" id="XMLID_5639_"/>
				<path d="M298.022,266.185c-8.01,0-15.031,2.411-21.059,7.209h42.122&#10;&#9;&#9;&#9;&#9;&#9;C313.054,268.596,306.037,266.185,298.022,266.185z M302.096,271.803v-2.015h3.532v2.015H302.096z" style="fill:#EBEBEB;" id="XMLID_5636_"/>
				<path d="M270.377,318.104h11.007c-1.254-1.312-2.34-2.694-3.258-4.145h-9.882&#10;&#9;&#9;&#9;&#9;&#9;C268.852,315.383,269.559,316.766,270.377,318.104z" style="fill:#EBEBEB;" id="XMLID_5635_"/>
				<path d="M265.33,293.437h9.01c0.686-2.483,1.751-4.808,3.203-6.971h-9.99&#10;&#9;&#9;&#9;&#9;&#9;C266.555,288.684,265.811,291.006,265.33,293.437z" style="fill:#EBEBEB;" id="XMLID_5634_"/>
				<path d="M272.467,300.495c0-1.917,0.193-3.748,0.556-5.514h-8.9&#10;&#9;&#9;&#9;&#9;&#9;c-0.268,1.785-0.41,3.621-0.41,5.514c0,2.411,0.221,4.733,0.655,6.965h9.008C272.778,305.261,272.467,302.944,272.467,300.495z&#10;&#9;&#9;&#9;&#9;&#9; M268.436,299.205h-1.766v-2.016h1.766V299.205z" style="fill:#EBEBEB;" id="XMLID_5630_"/>
				<path d="M298.023,334.805c5.815,0,11.105-1.27,15.877-3.798h-31.754&#10;&#9;&#9;&#9;&#9;&#9;C286.918,333.535,292.209,334.805,298.023,334.805z" style="fill:#EBEBEB;" id="XMLID_5629_"/>
				<path d="M330.378,286.467h-9.992c1.455,2.161,2.519,4.488,3.207,6.969h9.008&#10;&#9;&#9;&#9;&#9;&#9;C332.12,291.006,331.376,288.685,330.378,286.467z M330.317,290.959h-1.766v-2.016h1.766V290.959z" style="fill:#EBEBEB;" id="XMLID_5625_"/>
				<path d="M319.396,282.418c0.053,0.053,0.102,0.108,0.155,0.162h11.103&#10;&#9;&#9;&#9;&#9;&#9;c-0.225-0.36-0.452-0.719-0.692-1.073h-11.518C318.765,281.801,319.083,282.104,319.396,282.418z" style="fill:#EBEBEB;" id="XMLID_5624_"/>
				<path d="M331.927,294.981h-8.905c0.367,1.766,0.556,3.598,0.556,5.514&#10;&#9;&#9;&#9;&#9;&#9;c0,2.449-0.306,4.766-0.904,6.965h9.003c0.433-2.232,0.655-4.554,0.655-6.965C332.332,298.602,332.191,296.766,331.927,294.981z&#10;&#9;&#9;&#9;&#9;&#9; M328.631,302.228h-2.557v-2.016h2.557V302.228z" style="fill:#EBEBEB;" id="XMLID_5620_"/>
				<path d="M276.069,326.866c1.121,0.951,2.279,1.813,3.471,2.595h36.97&#10;&#9;&#9;&#9;&#9;&#9;c1.191-0.782,2.35-1.643,3.47-2.595H276.069z M302.133,329.168h-1.761v-2.015h1.761V329.168z" style="fill:#EBEBEB;" id="XMLID_5617_"/>
				<path d="M344.839,286.467v6.969h8.669v-6.969H344.839z M352.807,291.967h-2.557v-2.015&#10;&#9;&#9;&#9;&#9;&#9;h2.557V291.967z" style="fill:#EBEBEB;" id="XMLID_5613_"/>
				<polygon points="365.782,318.104 375.913,318.104 373.223,313.959 363.191,313.959" style="fill:#EBEBEB;" id="XMLID_5612_"/>
				<rect height="1.073" width="8.672" style="fill:#EBEBEB;" y="281.507" x="347.192" id="XMLID_5611_"/>
				<path d="M373.588,294.981c-0.688,1.771-1.747,3.376-3.193,4.822&#10;&#9;&#9;&#9;&#9;&#9;c-2.755,2.75-6.056,4.125-9.908,4.125h-7.92v-8.947h-8.669v12.479h31.136c0.494-0.452,1.003-0.942,1.54-1.479&#10;&#9;&#9;&#9;&#9;&#9;c3.174-3.193,5.208-6.861,6.112-11H373.588z M347.702,303.236h-1.766v-2.015h1.766V303.236z M374.755,302.228v-2.016h2.557&#10;&#9;&#9;&#9;&#9;&#9;v2.016H374.755z" style="fill:#EBEBEB;" id="XMLID_5606_"/>
				<path d="M375.841,282.579h9.565c-0.119-0.361-0.247-0.719-0.385-1.073h-9.913&#10;&#9;&#9;&#9;&#9;&#9;C375.372,281.856,375.616,282.214,375.841,282.579z" style="fill:#EBEBEB;" id="XMLID_5605_"/>
				<rect height="3.654" width="8.672" style="fill:#EBEBEB;" y="321.664" x="343.896" id="XMLID_5604_"/>
				<path d="M376.342,321.662h-10.219l2.284,3.654h10.303L376.342,321.662z&#10;&#9;&#9;&#9;&#9;&#9; M374.925,324.497h-1.761v-2.015h1.761V324.497z" style="fill:#EBEBEB;" id="XMLID_5601_"/>
				<path d="M375.461,289.812c0,1.27-0.148,2.478-0.438,3.626h8.889&#10;&#9;&#9;&#9;&#9;&#9;c0.173-1.173,0.262-2.381,0.262-3.626c0-1.145-0.076-2.26-0.225-3.346h-8.864C375.334,287.53,375.461,288.644,375.461,289.812z" style="fill:#EBEBEB;" id="XMLID_5600_"/>
				<path d="M343.896,279.492h8.672v-3.715h7.918c3.665,0,6.829,1.24,9.497,3.715h10.833&#10;&#9;&#9;&#9;&#9;&#9;c-0.827-1.603-1.866-3.121-3.119-4.553h-33.801V279.492z" style="fill:#EBEBEB;" id="XMLID_5599_"/>
				<polygon points="373.891,334.092 384.406,334.092 382.404,331.007 371.962,331.007" style="fill:#EBEBEB;" id="XMLID_5598_"/>
				<polygon points="370.996,329.461 381.4,329.461 379.715,326.864 369.373,326.864" style="fill:#EBEBEB;" id="XMLID_5597_"/>
				<rect height="3.085" width="8.672" style="fill:#EBEBEB;" y="331.007" x="343.896" id="XMLID_5596_"/>
				<rect height="2.598" width="8.672" style="fill:#EBEBEB;" y="326.864" x="343.896" id="XMLID_5595_"/>
				<rect height="4.145" width="8.672" style="fill:#EBEBEB;" y="313.959" x="345.779" id="XMLID_5594_"/>
				<path d="M362.917,267.066h-19.02v6.329h32.332&#10;&#9;&#9;&#9;&#9;&#9;C372.575,269.882,368.139,267.768,362.917,267.066z M349.511,271.238h-2.557v-2.016h2.557V271.238z" style="fill:#EBEBEB;" id="XMLID_5590_"/>
				<polygon points="298.023,274.94 298.022,274.94 298.025,274.94" style="fill:#EBEBEB;" id="XMLID_5589_"/>
				<rect height="1.546" width="36.112" style="fill:#EBEBEB;" y="273.394" x="121.842" id="XMLID_5588_"/>
				<path d="M203.274,274.94c-0.359-0.411-0.73-0.818-1.124-1.215&#10;&#9;&#9;&#9;&#9;&#9;c-0.113-0.113-0.23-0.221-0.345-0.331h-32.332v1.546H203.274z" style="fill:#EBEBEB;" id="XMLID_5587_"/>
				<path d="M252.33,274.94c-0.359-0.411-0.73-0.818-1.124-1.215&#10;&#9;&#9;&#9;&#9;&#9;c-0.113-0.113-0.23-0.221-0.345-0.331h-32.332v1.546H252.33z" style="fill:#EBEBEB;" id="XMLID_5586_"/>
				<path d="M300.847,274.94l0.001,0c0,0,0.001,0,0.001,0h22.889&#10;&#9;&#9;&#9;&#9;&#9;c-0.598-0.543-1.209-1.053-1.828-1.546h-42.124c-0.619,0.493-1.23,1.003-1.828,1.546H300.847z" style="fill:#EBEBEB;" id="XMLID_5585_"/>
				<path d="M380.522,274.94c-0.359-0.411-0.73-0.818-1.124-1.215&#10;&#9;&#9;&#9;&#9;&#9;c-0.113-0.113-0.23-0.221-0.345-0.331h-32.332v1.546H380.522z" style="fill:#EBEBEB;" id="XMLID_5584_"/>
				<rect height="1.546" width="8.672" style="fill:#EBEBEB;" y="293.437" x="116.662" id="XMLID_5583_"/>
				<path d="M194.479,293.437c-0.134,0.528-0.299,1.043-0.495,1.546h9.098&#10;&#9;&#9;&#9;&#9;&#9;c0.111-0.508,0.208-1.023,0.285-1.546H194.479z" style="fill:#EBEBEB;" id="XMLID_5582_"/>
				<rect height="1.546" width="8.672" style="fill:#EBEBEB;" y="293.437" x="164.293" id="XMLID_5581_"/>
				<path d="M243.535,293.437c-0.134,0.528-0.299,1.043-0.494,1.546h9.098&#10;&#9;&#9;&#9;&#9;&#9;c0.111-0.508,0.208-1.023,0.285-1.546H243.535z" style="fill:#EBEBEB;" id="XMLID_5580_"/>
				<rect height="1.546" width="8.672" style="fill:#EBEBEB;" y="293.437" x="213.35" id="XMLID_5579_"/>
				<path d="M261.767,294.983h8.903c0.108-0.522,0.233-1.037,0.374-1.546h-9.01&#10;&#9;&#9;&#9;&#9;&#9;C261.933,293.948,261.845,294.463,261.767,294.983z" style="fill:#EBEBEB;" id="XMLID_5578_"/>
				<path d="M320.668,294.983h8.903c-0.078-0.52-0.166-1.035-0.267-1.546h-9.01&#10;&#9;&#9;&#9;&#9;&#9;C320.434,293.946,320.559,294.461,320.668,294.983z" style="fill:#EBEBEB;" id="XMLID_5577_"/>
				<path d="M371.233,294.983h9.098c0.111-0.508,0.208-1.023,0.285-1.546h-8.889&#10;&#9;&#9;&#9;&#9;&#9;C371.593,293.966,371.428,294.481,371.233,294.983z" style="fill:#EBEBEB;" id="XMLID_5576_"/>
				<rect height="1.546" width="8.672" style="fill:#EBEBEB;" y="293.437" x="341.541" id="XMLID_5575_"/>
				<rect height="2.014" width="8.672" style="fill:#EBEBEB;" y="279.492" x="116.191" id="XMLID_5574_"/>
				<path d="M191.739,281.507h9.913c-0.267-0.686-0.57-1.357-0.909-2.014h-10.833&#10;&#9;&#9;&#9;&#9;&#9;c0.138,0.128,0.275,0.256,0.411,0.391C190.843,280.404,191.315,280.945,191.739,281.507z" style="fill:#EBEBEB;" id="XMLID_5573_"/>
				<rect height="2.014" width="8.672" style="fill:#EBEBEB;" y="279.492" x="163.822" id="XMLID_5572_"/>
				<rect height="2.014" width="8.672" style="fill:#EBEBEB;" y="279.492" x="212.879" id="XMLID_5571_"/>
				<path d="M240.795,281.507h9.913c-0.267-0.686-0.571-1.357-0.91-2.014h-10.833&#10;&#9;&#9;&#9;&#9;&#9;c0.138,0.128,0.276,0.256,0.411,0.391C239.899,280.404,240.371,280.945,240.795,281.507z" style="fill:#EBEBEB;" id="XMLID_5570_"/>
				<path d="M278.074,281.507c0.806-0.736,1.64-1.402,2.497-2.014H268.05&#10;&#9;&#9;&#9;&#9;&#9;c-0.523,0.661-1.028,1.33-1.494,2.014H278.074z" style="fill:#EBEBEB;" id="XMLID_5569_"/>
				<path d="M323.84,281.507c-0.466-0.685-0.97-1.354-1.494-2.014h-12.521&#10;&#9;&#9;&#9;&#9;&#9;c0.857,0.612,1.692,1.279,2.497,2.014H323.84z" style="fill:#EBEBEB;" id="XMLID_5568_"/>
				<path d="M367.568,279.883c0.523,0.52,0.995,1.062,1.419,1.624h9.913&#10;&#9;&#9;&#9;&#9;&#9;c-0.268-0.686-0.57-1.357-0.909-2.014h-10.833C367.295,279.62,367.432,279.749,367.568,279.883z" style="fill:#EBEBEB;" id="XMLID_5567_"/>
				<rect height="2.014" width="8.672" style="fill:#EBEBEB;" y="279.492" x="341.07" id="XMLID_5566_"/>
				<rect height="2.014" width="8.672" style="fill:#EBEBEB;" y="311.945" x="119.016" id="XMLID_5565_"/>
				<polygon points="175.32,312.643 183.237,312.643 184.06,313.959 194.092,313.959 &#10;&#9;&#9;&#9;&#9;&#9;192.785,311.945 166.648,311.945 166.648,313.959 175.32,313.959" style="fill:#EBEBEB;" id="XMLID_5564_"/>
				<polygon points="224.376,312.643 232.294,312.643 233.116,313.959 243.148,313.959 &#10;&#9;&#9;&#9;&#9;&#9;241.841,311.945 215.704,311.945 215.704,313.959 224.376,313.959" style="fill:#EBEBEB;" id="XMLID_5563_"/>
				<path d="M266.361,313.959h9.882c-0.416-0.657-0.796-1.329-1.143-2.014h-9.521&#10;&#9;&#9;&#9;&#9;&#9;C265.816,312.626,266.078,313.297,266.361,313.959z" style="fill:#EBEBEB;" id="XMLID_5562_"/>
				<path d="M319.814,313.959h9.872c0.283-0.662,0.545-1.333,0.782-2.014h-9.514&#10;&#9;&#9;&#9;&#9;&#9;C320.609,312.63,320.229,313.302,319.814,313.959z" style="fill:#EBEBEB;" id="XMLID_5561_"/>
				<polygon points="343.896,311.945 343.896,313.959 352.568,313.959 352.568,312.643 &#10;&#9;&#9;&#9;&#9;&#9;360.485,312.643 361.308,313.959 371.34,313.959 370.032,311.945" style="fill:#EBEBEB;" id="XMLID_5560_"/>
				<rect height="1.546" width="8.672" style="fill:#EBEBEB;" y="320.118" x="122.312" id="XMLID_5559_"/>
				<polygon points="201.385,320.118 191.205,320.118 192.172,321.664 202.389,321.664" style="fill:#EBEBEB;" id="XMLID_5558_"/>
				<rect height="1.546" width="8.672" style="fill:#EBEBEB;" y="320.118" x="169.944" id="XMLID_5557_"/>
				<polygon points="240.262,320.118 241.228,321.664 251.445,321.664 250.442,320.118" style="fill:#EBEBEB;" id="XMLID_5556_"/>
				<rect height="1.546" width="8.672" style="fill:#EBEBEB;" y="320.118" x="219" id="XMLID_5555_"/>
				<path d="M274.305,321.664h12.608c-0.68-0.477-1.344-0.992-1.992-1.546h-11.787&#10;&#9;&#9;&#9;&#9;&#9;C273.507,320.641,273.898,321.156,274.305,321.664z" style="fill:#EBEBEB;" id="XMLID_5554_"/>
				<path d="M328.334,321.664c0.408-0.508,0.797-1.024,1.171-1.546h-11.762&#10;&#9;&#9;&#9;&#9;&#9;c-0.647,0.554-1.31,1.069-1.989,1.546H328.334z" style="fill:#EBEBEB;" id="XMLID_5553_"/>
				<polygon points="368.453,320.118 369.42,321.664 379.636,321.664 378.633,320.118" style="fill:#EBEBEB;" id="XMLID_5552_"/>
				<rect height="1.546" width="8.672" style="fill:#EBEBEB;" y="320.118" x="347.192" id="XMLID_5551_"/>
				<rect height="2.014" width="8.672" style="fill:#EBEBEB;" y="318.104" x="119.016" id="XMLID_5550_"/>
				<rect height="2.014" width="8.672" style="fill:#EBEBEB;" y="318.104" x="166.648" id="XMLID_5549_"/>
				<polygon points="196.782,318.104 186.65,318.104 187.909,320.118 198.089,320.118" style="fill:#EBEBEB;" id="XMLID_5548_"/>
				<rect height="2.014" width="8.672" style="fill:#EBEBEB;" y="318.104" x="215.704" id="XMLID_5547_"/>
				<polygon points="235.707,318.104 236.965,320.118 247.145,320.118 245.838,318.104" style="fill:#EBEBEB;" id="XMLID_5546_"/>
				<path d="M316.1,318.592c-0.538,0.54-1.091,1.045-1.654,1.526h11.762&#10;&#9;&#9;&#9;&#9;&#9;c0.473-0.661,0.927-1.33,1.345-2.014h-10.988C316.41,318.267,316.26,318.431,316.1,318.592z" style="fill:#EBEBEB;" id="XMLID_5545_"/>
				<path d="M269.838,320.118h11.787c-0.564-0.481-1.118-0.986-1.657-1.526&#10;&#9;&#9;&#9;&#9;&#9;c-0.161-0.161-0.312-0.325-0.467-0.488h-11.007C268.911,318.788,269.365,319.457,269.838,320.118z" style="fill:#EBEBEB;" id="XMLID_5544_"/>
				<polygon points="365.157,320.118 375.337,320.118 374.03,318.104 363.898,318.104" style="fill:#EBEBEB;" id="XMLID_5543_"/>
				<rect height="2.014" width="8.672" style="fill:#EBEBEB;" y="318.104" x="343.896" id="XMLID_5542_"/>
				<rect height="1.546" width="36.112" style="fill:#EBEBEB;" y="329.461" x="121.842" id="XMLID_5541_"/>
				<polygon points="196.574,329.461 197.54,331.007 207.981,331.007 206.978,329.461" style="fill:#EBEBEB;" id="XMLID_5540_"/>
				<rect height="1.546" width="8.672" style="fill:#EBEBEB;" y="329.461" x="169.473" id="XMLID_5539_"/>
				<polygon points="245.63,329.461 246.596,331.007 257.037,331.007 256.034,329.461" style="fill:#EBEBEB;" id="XMLID_5538_"/>
				<rect height="1.546" width="8.672" style="fill:#EBEBEB;" y="329.461" x="218.529" id="XMLID_5537_"/>
				<path d="M282.364,329.461c0.852,0.558,1.72,1.075,2.608,1.546h31.754&#10;&#9;&#9;&#9;&#9;&#9;c0.888-0.47,1.757-0.988,2.608-1.546H282.364z" style="fill:#EBEBEB;" id="XMLID_5536_"/>
				<rect height="1.546" width="8.672" style="fill:#EBEBEB;" y="329.461" x="346.721" id="XMLID_5535_"/>
				<polygon points="374.788,331.007 385.229,331.007 384.226,329.461 373.822,329.461" style="fill:#EBEBEB;" id="XMLID_5534_"/>
				<polygon points="153.715,325.379 126.275,325.379 126.275,325.318 117.603,325.318 &#10;&#9;&#9;&#9;&#9;&#9;117.603,326.864 153.715,326.864" style="fill:#EBEBEB;" id="XMLID_5533_"/>
				<rect height="1.546" width="8.672" style="fill:#EBEBEB;" y="325.318" x="165.235" id="XMLID_5532_"/>
				<polygon points="189.746,325.318 190.712,326.864 201.054,326.864 200.051,325.318" style="fill:#EBEBEB;" id="XMLID_5531_"/>
				<polygon points="238.803,325.318 239.769,326.864 250.11,326.864 249.107,325.318" style="fill:#EBEBEB;" id="XMLID_5530_"/>
				<rect height="1.546" width="8.672" style="fill:#EBEBEB;" y="325.318" x="214.291" id="XMLID_5529_"/>
				<path d="M303.08,325.318c-2.05,0.513-4.206,0.773-6.47,0.773&#10;&#9;&#9;&#9;&#9;&#9;c-2.255,0-4.404-0.26-6.449-0.773h-17.213c0.56,0.537,1.128,1.054,1.706,1.546h43.912c0.579-0.491,1.147-1.009,1.706-1.546&#10;&#9;&#9;&#9;&#9;&#9;H303.08z" style="fill:#EBEBEB;" id="XMLID_5528_"/>
				<rect height="1.546" width="8.672" style="fill:#EBEBEB;" y="325.318" x="342.483" id="XMLID_5527_"/>
				<polygon points="367.96,326.864 378.302,326.864 377.299,325.318 366.994,325.318" style="fill:#EBEBEB;" id="XMLID_5526_"/>
				<rect height="4.483" width="8.672" style="fill:#EBEBEB;" y="307.462" x="122.783" id="XMLID_5525_"/>
				<path d="M196.054,311.175c1.337-0.322,3.172-1.562,5.501-3.715h-31.14v4.483h26.137&#10;&#9;&#9;&#9;&#9;&#9;L196.054,311.175z" style="fill:#EBEBEB;" id="XMLID_5524_"/>
				<path d="M250.612,307.46h-31.141v4.483h26.135l-0.494-0.768&#10;&#9;&#9;&#9;&#9;&#9;C246.45,310.855,248.281,309.616,250.612,307.46z M235.92,310.709h-1.761v-2.016h1.761V310.709z" style="fill:#EBEBEB;" id="XMLID_5521_"/>
				<path d="M326.441,307.46c-0.424,1.559-0.998,3.051-1.719,4.483h9.512&#10;&#9;&#9;&#9;&#9;&#9;c0.509-1.45,0.909-2.943,1.21-4.483H326.441z M331.362,310.709h-2.557v-2.016h2.557V310.709z" style="fill:#EBEBEB;" id="XMLID_5517_"/>
				<path d="M269.346,311.945h9.521c-0.725-1.432-1.299-2.926-1.723-4.483h-9.007&#10;&#9;&#9;&#9;&#9;&#9;C268.436,308.999,268.84,310.493,269.346,311.945z" style="fill:#EBEBEB;" id="XMLID_5516_"/>
				<path d="M347.663,311.945H373.8l-0.498-0.768c1.338-0.323,3.172-1.563,5.501-3.715&#10;&#9;&#9;&#9;&#9;&#9;h-31.14V311.945z" style="fill:#EBEBEB;" id="XMLID_5515_"/>
				<rect height="3.887" width="8.672" style="fill:#EBEBEB;" y="282.579" x="119.016" id="XMLID_5514_"/>
				<rect height="3.887" width="8.672" style="fill:#EBEBEB;" y="282.579" x="166.648" id="XMLID_5513_"/>
				<path d="M204.862,282.579h-9.566c0.744,1.208,1.276,2.504,1.599,3.887h8.865&#10;&#9;&#9;&#9;&#9;&#9;C205.576,285.124,205.274,283.83,204.862,282.579z" style="fill:#EBEBEB;" id="XMLID_5512_"/>
				<rect height="3.887" width="8.672" style="fill:#EBEBEB;" y="282.579" x="215.704" id="XMLID_5511_"/>
				<path d="M254.817,286.466c-0.184-1.342-0.487-2.636-0.898-3.887h-9.566&#10;&#9;&#9;&#9;&#9;&#9;c0.744,1.208,1.276,2.504,1.599,3.887H254.817z" style="fill:#EBEBEB;" id="XMLID_5510_"/>
				<path d="M329.435,286.466c-0.6-1.334-1.291-2.63-2.078-3.887h-11.102&#10;&#9;&#9;&#9;&#9;&#9;c1.214,1.233,2.278,2.528,3.19,3.887H329.435z" style="fill:#EBEBEB;" id="XMLID_5509_"/>
				<path d="M276.602,286.466c0.912-1.359,1.976-2.654,3.19-3.887H268.69&#10;&#9;&#9;&#9;&#9;&#9;c-0.787,1.257-1.478,2.553-2.078,3.887H276.602z" style="fill:#EBEBEB;" id="XMLID_5508_"/>
				<rect height="3.887" width="8.672" style="fill:#EBEBEB;" y="282.579" x="343.896" id="XMLID_5507_"/>
				<path d="M374.144,286.466h8.864c-0.184-1.342-0.487-2.636-0.898-3.887h-9.565&#10;&#9;&#9;&#9;&#9;&#9;C373.288,283.787,373.82,285.083,374.144,286.466z" style="fill:#EBEBEB;" id="XMLID_5506_"/>
			</g>
			<g id="XMLID_5337_">
				<polygon points="166.712,123.281 146.701,123.281 145.993,124.495 166.712,124.495" style="fill:#EBEBEB;" id="XMLID_5504_"/>
				<path d="M168.736,193.039v-1.599h-16.945v1.599H127.64l0.954-1.599h-19.61&#10;&#9;&#9;&#9;&#9;&#9;l-6.785,11.636h78.077v-10.037H168.736z M121.116,201.477h-3.838v-1.141h3.838V201.477z M167.99,199.542h-3.838v-2.281h3.838&#10;&#9;&#9;&#9;&#9;&#9;V199.542z" style="fill:#EBEBEB;" id="XMLID_5499_"/>
				<polygon points="133.135,179.016 133.135,180.156 135.337,180.156 132.4,185.076 &#10;&#9;&#9;&#9;&#9;&#9;112.699,185.076 118.674,174.826 121.116,174.826 121.116,173.685 119.341,173.685 122.224,168.734 142.154,168.734 &#10;&#9;&#9;&#9;&#9;&#9;136.019,179.016" style="fill:#EBEBEB;" id="XMLID_5498_"/>
				<polygon points="131.355,186.823 111.677,186.823 110.879,188.191 130.538,188.191" style="fill:#EBEBEB;" id="XMLID_5497_"/>
				<polygon points="189.34,204.702 110.315,204.702 110.063,205.134 189.34,205.134" style="fill:#EBEBEB;" id="XMLID_5496_"/>
				<polygon points="168.736,209.987 180.278,209.987 180.278,207.837 99.425,207.837 &#10;&#9;&#9;&#9;&#9;&#9;98.171,209.987 151.791,209.987 151.791,220.706 168.736,220.706" style="fill:#EBEBEB;" id="XMLID_5495_"/>
				<rect height="6.876" width="16.945" style="fill:#EBEBEB;" y="226.835" x="151.791" id="XMLID_5494_"/>
				<polygon points="151.791,152.602 151.791,153.985 168.736,153.985 168.736,146.575 &#10;&#9;&#9;&#9;&#9;&#9;135.144,146.575 130.823,153.985 150.965,153.985" style="fill:#EBEBEB;" id="XMLID_5493_"/>
				<polygon points="168.736,114.373 153.919,114.373 150.055,121.001 168.736,121.001" style="fill:#EBEBEB;" id="XMLID_5492_"/>
				<polygon points="146.674,161.17 126.634,161.17 125.969,162.31 145.993,162.31" style="fill:#EBEBEB;" id="XMLID_5491_"/>
				<rect height="1.129" width="16.945" style="fill:#EBEBEB;" y="223.957" x="151.791" id="XMLID_5490_"/>
				<polygon points="144.632,164.59 124.64,164.59 123.243,166.986 143.201,166.986" style="fill:#EBEBEB;" id="XMLID_5489_"/>
				<path d="M145.453,128.895l-7.745,13.278h31.027v-13.278H145.453z M159.397,141.208&#10;&#9;&#9;&#9;&#9;&#9;h-3.726v-1.951h3.726V141.208z" style="fill:#EBEBEB;" id="XMLID_5486_"/>
				<rect height="2.396" width="16.945" style="fill:#EBEBEB;" y="164.59" x="151.791" id="XMLID_5485_"/>
				<rect height="6.639" width="16.945" style="fill:#EBEBEB;" y="238.713" x="151.791" id="XMLID_5484_"/>
				<rect height="16.337" width="16.945" style="fill:#EBEBEB;" y="168.736" x="151.791" id="XMLID_5483_"/>
				<rect height="1.14" width="16.945" style="fill:#EBEBEB;" y="161.17" x="151.791" id="XMLID_5482_"/>
				<rect height="1.368" width="16.945" style="fill:#EBEBEB;" y="186.823" x="151.791" id="XMLID_5481_"/>
				<rect height="2.396" width="17.355" style="fill:#EBEBEB;" y="164.59" x="276.465" id="XMLID_5480_"/>
				<path d="M218.098,200.901v-9.458h-17.355v9.458c0,0.732,0.019,1.456,0.049,2.175h17.385&#10;&#9;&#9;&#9;&#9;&#9;C218.13,202.36,218.098,201.637,218.098,200.901z" style="fill:#EBEBEB;" id="XMLID_5479_"/>
				<rect height="2.396" width="17.355" style="fill:#EBEBEB;" y="164.59" x="200.744" id="XMLID_5478_"/>
				<path d="M227.389,204.702h-17.434c0.01,0.144,0.018,0.289,0.029,0.432h17.454&#10;&#9;&#9;&#9;&#9;&#9;C227.42,204.991,227.406,204.846,227.389,204.702z" style="fill:#EBEBEB;" id="XMLID_5477_"/>
				<rect height="1.368" width="17.355" style="fill:#EBEBEB;" y="186.823" x="200.744" id="XMLID_5476_"/>
				<path d="M226.653,140.323c5.702-5.675,12.566-8.514,20.588-8.514&#10;&#9;&#9;&#9;&#9;&#9;c8.076,0,14.966,2.838,20.67,8.514c0.606,0.603,1.173,1.223,1.714,1.852h20.405c-2.111-4.791-5.107-9.218-8.987-13.281h-67.522&#10;&#9;&#9;&#9;&#9;&#9;c-3.88,4.063-6.876,8.49-8.987,13.281h20.404C225.48,141.546,226.047,140.926,226.653,140.323z" style="fill:#EBEBEB;" id="XMLID_5475_"/>
				<path d="M218.872,207.837h-17.658c0.632,4.553,1.903,8.843,3.815,12.869h20.833&#10;&#9;&#9;&#9;&#9;&#9;C222.317,216.927,219.987,212.638,218.872,207.837z" style="fill:#EBEBEB;" id="XMLID_5474_"/>
				<rect height="1.368" width="17.355" style="fill:#EBEBEB;" y="186.823" x="276.465" id="XMLID_5473_"/>
				<path d="M275.693,153.985h17.663c-0.352-2.554-0.913-5.022-1.667-7.41H272.76&#10;&#9;&#9;&#9;&#9;&#9;C274.102,148.895,275.082,151.364,275.693,153.985z" style="fill:#EBEBEB;" id="XMLID_5472_"/>
				<path d="M221.803,146.575h-18.928c-0.754,2.389-1.315,4.856-1.667,7.41h17.662&#10;&#9;&#9;&#9;&#9;&#9;C219.481,151.364,220.46,148.895,221.803,146.575z" style="fill:#EBEBEB;" id="XMLID_5471_"/>
				<rect height="1.14" width="17.355" style="fill:#EBEBEB;" y="161.17" x="276.465" id="XMLID_5470_"/>
				<path d="M273.1,124.495c-0.51-0.416-1.024-0.824-1.545-1.214h-54.946&#10;&#9;&#9;&#9;&#9;&#9;c-0.521,0.39-1.034,0.799-1.544,1.214H273.1z" style="fill:#EBEBEB;" id="XMLID_5469_"/>
				<path d="M268.702,220.706h20.833c1.911-4.026,3.183-8.316,3.815-12.869h-17.659&#10;&#9;&#9;&#9;&#9;&#9;C274.576,212.638,272.246,216.927,268.702,220.706z" style="fill:#EBEBEB;" id="XMLID_5468_"/>
				<path d="M220.119,238.714c7.851,5.783,16.891,8.683,27.12,8.683&#10;&#9;&#9;&#9;&#9;&#9;c10.277,0,19.343-2.9,27.2-8.683H220.119z M240.795,242.029h-3.273v-2.281h3.273V242.029z" style="fill:#EBEBEB;" id="XMLID_5465_"/>
				<path d="M285.247,205.134h17.455c0.012-0.143,0.019-0.288,0.03-0.432h-17.434&#10;&#9;&#9;&#9;&#9;&#9;C285.28,204.846,285.266,204.991,285.247,205.134z" style="fill:#EBEBEB;" id="XMLID_5464_"/>
				<path d="M267.644,235.553h17.455c0.012-0.143,0.019-0.288,0.029-0.432h-17.434&#10;&#9;&#9;&#9;&#9;&#9;C267.677,235.265,267.663,235.41,267.644,235.553z" style="fill:#EBEBEB;" id="XMLID_5463_"/>
				<rect height="1.14" width="17.355" style="fill:#EBEBEB;" y="161.17" x="200.744" id="XMLID_5462_"/>
				<rect height="16.337" width="17.355" style="fill:#EBEBEB;" y="168.736" x="276.465" id="XMLID_5461_"/>
				<path d="M276.465,200.901c0,0.736-0.032,1.459-0.079,2.175h17.385&#10;&#9;&#9;&#9;&#9;&#9;c0.029-0.72,0.049-1.444,0.049-2.175v-9.458h-17.355V200.901z" style="fill:#EBEBEB;" id="XMLID_5460_"/>
				<path d="M229.392,223.957h-22.635c0.221,0.378,0.443,0.755,0.676,1.129h23.477&#10;&#9;&#9;&#9;&#9;&#9;C230.396,224.73,229.891,224.352,229.392,223.957z" style="fill:#EBEBEB;" id="XMLID_5459_"/>
				<path d="M263.647,225.086h23.483c0.233-0.373,0.455-0.751,0.676-1.129h-22.637&#10;&#9;&#9;&#9;&#9;&#9;C264.669,224.352,264.163,224.73,263.647,225.086z" style="fill:#EBEBEB;" id="XMLID_5458_"/>
				<path d="M200.744,168.734v16.342h17.355v-16.342H200.744z M211.505,175.396h-3.838&#10;&#9;&#9;&#9;&#9;&#9;v-2.281h3.838V175.396z" style="fill:#EBEBEB;" id="XMLID_5455_"/>
				<path d="M260.762,226.833c-4.062,2.137-8.566,3.209-13.523,3.209&#10;&#9;&#9;&#9;&#9;&#9;c-4.92,0-9.402-1.071-13.448-3.209h-25.212c1.652,2.404,3.561,4.696,5.74,6.876h65.924c2.175-2.18,4.088-4.472,5.741-6.876&#10;&#9;&#9;&#9;&#9;&#9;H260.762z M276.465,231.198h-9.168v-2.281h9.168V231.198z" style="fill:#EBEBEB;" id="XMLID_5451_"/>
				<path d="M247.241,114.373c-8.939,0-16.967,2.214-24.089,6.628h48.253&#10;&#9;&#9;&#9;&#9;&#9;C264.27,116.587,256.217,114.373,247.241,114.373z" style="fill:#EBEBEB;" id="XMLID_5450_"/>
				<polygon points="314.204,209.987 367.823,209.987 367.823,220.706 384.768,220.706 &#10;&#9;&#9;&#9;&#9;&#9;384.768,209.987 396.31,209.987 396.31,207.837 315.458,207.837" style="fill:#EBEBEB;" id="XMLID_5449_"/>
				<rect height="2.396" width="16.945" style="fill:#EBEBEB;" y="164.59" x="367.823" id="XMLID_5448_"/>
				<rect height="16.337" width="16.945" style="fill:#EBEBEB;" y="168.736" x="367.823" id="XMLID_5447_"/>
				<polygon points="326.095,205.134 405.372,205.134 405.372,204.702 326.347,204.702" style="fill:#EBEBEB;" id="XMLID_5446_"/>
				<polygon points="331.904,230.489 372.804,230.489 372.804,230.058 332.156,230.058" style="fill:#EBEBEB;" id="XMLID_5445_"/>
				<polygon points="120.482,214.015 161.381,214.015 161.381,213.583 120.734,213.583" style="fill:#EBEBEB;" id="XMLID_5444_"/>
				<polygon points="142.479,228.864 183.378,228.864 183.378,228.432 142.73,228.432" style="fill:#EBEBEB;" id="XMLID_5443_"/>
				<polygon points="189.506,211.391 230.405,211.391 230.405,210.96 189.757,210.96" style="fill:#EBEBEB;" id="XMLID_5442_"/>
				<polygon points="143.702,173.999 166.071,173.999 166.071,173.568 143.84,173.568" style="fill:#EBEBEB;" id="XMLID_5441_"/>
				<polygon points="261.916,155.424 284.284,155.424 284.284,154.992 262.053,154.992" style="fill:#EBEBEB;" id="XMLID_5440_"/>
				<polygon points="216.255,158.009 238.623,158.009 238.623,157.578 216.392,157.578" style="fill:#EBEBEB;" id="XMLID_5439_"/>
				<polygon points="342.558,175.612 364.926,175.612 364.926,175.18 342.696,175.18" style="fill:#EBEBEB;" id="XMLID_5438_"/>
				<polygon points="329.985,150.496 352.354,150.496 352.354,150.064 330.123,150.064" style="fill:#EBEBEB;" id="XMLID_5437_"/>
				<polygon points="367.823,193.042 343.674,193.042 344.628,191.443 325.016,191.443 &#10;&#9;&#9;&#9;&#9;&#9;318.233,203.076 396.31,203.076 396.31,193.042 384.768,193.042 384.768,191.443 367.823,191.443" style="fill:#EBEBEB;" id="XMLID_5436_"/>
				<rect height="1.368" width="16.945" style="fill:#EBEBEB;" y="186.823" x="367.823" id="XMLID_5435_"/>
				<polygon points="346.855,153.985 366.997,153.985 367.823,152.602 367.823,153.985 &#10;&#9;&#9;&#9;&#9;&#9;384.768,153.985 384.768,146.575 351.176,146.575" style="fill:#EBEBEB;" id="XMLID_5434_"/>
				<polygon points="360.851,124.495 381.57,124.495 381.57,123.281 361.559,123.281" style="fill:#EBEBEB;" id="XMLID_5433_"/>
				<rect height="1.129" width="16.945" style="fill:#EBEBEB;" y="223.957" x="367.823" id="XMLID_5432_"/>
				<rect height="1.14" width="16.945" style="fill:#EBEBEB;" y="161.17" x="367.823" id="XMLID_5431_"/>
				<path d="M361.482,128.895l-7.74,13.278h31.027v-13.278H361.482z M361.482,138.815h-1.94&#10;&#9;&#9;&#9;&#9;&#9;v-2.281h1.94V138.815z M379.37,132.318h-3.886v-2.281h3.886V132.318z" style="fill:#EBEBEB;" id="XMLID_5426_"/>
				<polygon points="362.025,162.31 362.706,161.17 342.666,161.17 342.002,162.31" style="fill:#EBEBEB;" id="XMLID_5425_"/>
				<rect height="6.876" width="16.945" style="fill:#EBEBEB;" y="226.835" x="367.823" id="XMLID_5424_"/>
				<polygon points="384.768,114.373 369.951,114.373 366.087,121.001 384.768,121.001" style="fill:#EBEBEB;" id="XMLID_5423_"/>
				<rect height="6.639" width="16.945" style="fill:#EBEBEB;" y="238.713" x="367.823" id="XMLID_5422_"/>
				<polygon points="339.275,166.986 359.233,166.986 360.664,164.59 340.672,164.59" style="fill:#EBEBEB;" id="XMLID_5421_"/>
				<polygon points="328.729,185.073 348.432,185.073 358.188,168.736 338.255,168.736" style="fill:#EBEBEB;" id="XMLID_5420_"/>
				<polygon points="326.911,188.191 346.57,188.191 347.387,186.823 327.709,186.823" style="fill:#EBEBEB;" id="XMLID_5419_"/>
				<polygon points="171.401,121.001 152.72,121.001 151.39,123.281 171.401,123.281" style="fill:#EBEBEB;" id="XMLID_5418_"/>
				<path d="M277.418,123.281c-1.092-0.817-2.21-1.575-3.349-2.28h-48.253&#10;&#9;&#9;&#9;&#9;&#9;c-1.137,0.705-2.253,1.463-3.344,2.28H277.418z" style="fill:#EBEBEB;" id="XMLID_5417_"/>
				<polygon points="387.433,123.281 387.433,121.001 368.752,121.001 367.422,123.281" style="fill:#EBEBEB;" id="XMLID_5416_"/>
				<polygon points="150.258,162.31 130.234,162.31 128.904,164.59 148.896,164.59" style="fill:#EBEBEB;" id="XMLID_5415_"/>
				<rect height="2.28" width="16.945" style="fill:#EBEBEB;" y="162.31" x="156.055" id="XMLID_5414_"/>
				<rect height="2.28" width="17.355" style="fill:#EBEBEB;" y="162.31" x="205.008" id="XMLID_5413_"/>
				<rect height="2.28" width="17.354" style="fill:#EBEBEB;" y="162.31" x="280.73" id="XMLID_5412_"/>
				<polygon points="344.936,164.59 364.928,164.59 366.29,162.31 346.266,162.31" style="fill:#EBEBEB;" id="XMLID_5411_"/>
				<rect height="2.28" width="16.945" style="fill:#EBEBEB;" y="162.31" x="372.087" id="XMLID_5410_"/>
				<polygon points="128.669,185.073 108.966,185.073 107.946,186.823 127.624,186.823" style="fill:#EBEBEB;" id="XMLID_5409_"/>
				<rect height="1.75" width="16.945" style="fill:#EBEBEB;" y="185.073" x="148.059" id="XMLID_5408_"/>
				<rect height="1.75" width="17.355" style="fill:#EBEBEB;" y="185.073" x="272.734" id="XMLID_5407_"/>
				<rect height="1.75" width="17.355" style="fill:#EBEBEB;" y="185.073" x="197.013" id="XMLID_5406_"/>
				<polygon points="323.978,186.823 343.656,186.823 344.701,185.073 324.998,185.073" style="fill:#EBEBEB;" id="XMLID_5405_"/>
				<rect height="1.75" width="16.945" style="fill:#EBEBEB;" y="185.073" x="364.091" id="XMLID_5404_"/>
				<polygon points="175.481,205.134 96.204,205.134 94.628,207.837 175.481,207.837" style="fill:#EBEBEB;" id="XMLID_5403_"/>
				<path d="M213.58,205.134h-17.454c0.075,0.91,0.167,1.813,0.29,2.703h17.659&#10;&#9;&#9;&#9;&#9;&#9;C213.869,206.953,213.704,206.052,213.58,205.134z" style="fill:#EBEBEB;" id="XMLID_5402_"/>
				<path d="M270.894,207.837h17.659c0.123-0.89,0.215-1.793,0.29-2.703h-17.455&#10;&#9;&#9;&#9;&#9;&#9;C271.266,206.052,271.1,206.953,270.894,207.837z" style="fill:#EBEBEB;" id="XMLID_5401_"/>
				<polygon points="310.66,207.837 391.513,207.837 391.513,205.134 312.236,205.134" style="fill:#EBEBEB;" id="XMLID_5400_"/>
				<rect height="1.75" width="16.945" style="fill:#EBEBEB;" y="166.986" x="149.658" id="XMLID_5399_"/>
				<polygon points="141.069,166.986 121.111,166.986 120.091,168.736 140.024,168.736" style="fill:#EBEBEB;" id="XMLID_5398_"/>
				<rect height="1.75" width="17.354" style="fill:#EBEBEB;" y="166.986" x="274.333" id="XMLID_5397_"/>
				<rect height="1.75" width="17.354" style="fill:#EBEBEB;" y="166.986" x="198.612" id="XMLID_5396_"/>
				<rect height="1.75" width="16.945" style="fill:#EBEBEB;" y="166.986" x="365.691" id="XMLID_5395_"/>
				<polygon points="336.123,168.736 356.056,168.736 357.101,166.986 337.143,166.986" style="fill:#EBEBEB;" id="XMLID_5394_"/>
				<rect height="1.75" width="16.945" style="fill:#EBEBEB;" y="236.963" x="154.989" id="XMLID_5393_"/>
				<path d="M221.067,236.963c0.737,0.613,1.49,1.19,2.249,1.75h54.324&#10;&#9;&#9;&#9;&#9;&#9;c0.76-0.559,1.513-1.136,2.251-1.75H221.067z" style="fill:#EBEBEB;" id="XMLID_5392_"/>
				<rect height="1.75" width="16.945" style="fill:#EBEBEB;" y="236.963" x="371.021" id="XMLID_5391_"/>
				<rect height="1.75" width="16.945" style="fill:#EBEBEB;" y="225.086" x="155.522" id="XMLID_5390_"/>
				<path d="M264.492,226.835h25.225c0.397-0.577,0.777-1.161,1.144-1.75h-23.483&#10;&#9;&#9;&#9;&#9;&#9;C266.443,225.732,265.481,226.316,264.492,226.835z" style="fill:#EBEBEB;" id="XMLID_5389_"/>
				<path d="M234.642,225.086h-23.477c0.367,0.589,0.747,1.173,1.144,1.75h25.212&#10;&#9;&#9;&#9;&#9;&#9;C236.535,226.316,235.575,225.732,234.642,225.086z" style="fill:#EBEBEB;" id="XMLID_5388_"/>
				<rect height="1.75" width="16.945" style="fill:#EBEBEB;" y="225.086" x="371.554" id="XMLID_5387_"/>
				<polygon points="153.097,153.985 132.955,153.985 128.766,161.17 148.806,161.17" style="fill:#EBEBEB;" id="XMLID_5386_"/>
				<rect height="7.185" width="16.945" style="fill:#EBEBEB;" y="153.985" x="153.923" id="XMLID_5385_"/>
				<path d="M278.598,160.87v0.3h17.354v-0.3c0-2.359-0.157-4.653-0.464-6.885h-17.663&#10;&#9;&#9;&#9;&#9;&#9;C278.336,156.176,278.598,158.469,278.598,160.87z" style="fill:#EBEBEB;" id="XMLID_5384_"/>
				<path d="M220.23,160.87c0-2.401,0.261-4.695,0.772-6.885H203.34&#10;&#9;&#9;&#9;&#9;&#9;c-0.307,2.232-0.464,4.527-0.464,6.885v0.3h17.355V160.87z" style="fill:#EBEBEB;" id="XMLID_5383_"/>
				<polygon points="364.839,161.17 369.129,153.985 348.988,153.985 344.798,161.17" style="fill:#EBEBEB;" id="XMLID_5382_"/>
				<rect height="7.185" width="16.945" style="fill:#EBEBEB;" y="153.985" x="369.955" id="XMLID_5381_"/>
				<polygon points="172.467,142.175 141.44,142.175 138.875,146.575 172.467,146.575" style="fill:#EBEBEB;" id="XMLID_5380_"/>
				<path d="M277.024,146.575h18.929c-0.473-1.499-1.027-2.965-1.659-4.399h-20.405&#10;&#9;&#9;&#9;&#9;&#9;C275.094,143.576,276.138,145.043,277.024,146.575z" style="fill:#EBEBEB;" id="XMLID_5379_"/>
				<path d="M229.202,142.175h-20.404c-0.632,1.434-1.186,2.9-1.659,4.399h18.928&#10;&#9;&#9;&#9;&#9;&#9;C226.953,145.043,227.997,143.576,229.202,142.175z" style="fill:#EBEBEB;" id="XMLID_5378_"/>
				<polygon points="355.44,146.575 389.032,146.575 389.032,142.175 358.005,142.175" style="fill:#EBEBEB;" id="XMLID_5377_"/>
				<rect height="3.251" width="16.945" style="fill:#EBEBEB;" y="220.706" x="149.125" id="XMLID_5376_"/>
				<path d="M223.988,221.53c-0.272-0.271-0.532-0.547-0.792-0.824h-20.833&#10;&#9;&#9;&#9;&#9;&#9;c0.525,1.105,1.108,2.186,1.729,3.251h22.635C225.787,223.214,224.872,222.41,223.988,221.53z" style="fill:#EBEBEB;" id="XMLID_5375_"/>
				<path d="M265.246,221.53c-0.885,0.88-1.801,1.684-2.742,2.428h22.637&#10;&#9;&#9;&#9;&#9;&#9;c0.621-1.066,1.205-2.146,1.73-3.251h-20.833C265.778,220.982,265.518,221.259,265.246,221.53z" style="fill:#EBEBEB;" id="XMLID_5374_"/>
				<rect height="3.251" width="16.945" style="fill:#EBEBEB;" y="220.706" x="365.158" id="XMLID_5373_"/>
				<rect height="3.251" width="16.945" style="fill:#EBEBEB;" y="188.191" x="154.989" id="XMLID_5372_"/>
				<polygon points="133.736,188.191 114.078,188.191 112.182,191.443 131.794,191.443" style="fill:#EBEBEB;" id="XMLID_5371_"/>
				<rect height="3.251" width="17.354" style="fill:#EBEBEB;" y="188.191" x="203.942" id="XMLID_5370_"/>
				<rect height="3.251" width="17.355" style="fill:#EBEBEB;" y="188.191" x="279.663" id="XMLID_5369_"/>
				<rect height="3.251" width="16.945" style="fill:#EBEBEB;" y="188.191" x="371.021" id="XMLID_5368_"/>
				<polygon points="330.11,188.191 328.214,191.443 347.826,191.443 349.768,188.191" style="fill:#EBEBEB;" id="XMLID_5367_"/>
				<polygon points="184.009,203.076 105.932,203.076 104.984,204.702 184.009,204.702" style="fill:#EBEBEB;" id="XMLID_5366_"/>
				<path d="M279.967,204.702h17.434c0.04-0.54,0.079-1.079,0.102-1.626h-17.385&#10;&#9;&#9;&#9;&#9;&#9;C280.081,203.624,280.031,204.166,279.967,204.702z" style="fill:#EBEBEB;" id="XMLID_5365_"/>
				<path d="M221.909,203.076h-17.385c0.023,0.547,0.062,1.086,0.102,1.626h17.434&#10;&#9;&#9;&#9;&#9;&#9;C221.995,204.166,221.945,203.624,221.909,203.076z" style="fill:#EBEBEB;" id="XMLID_5364_"/>
				<polygon points="321.016,204.702 400.042,204.702 400.042,203.076 321.964,203.076" style="fill:#EBEBEB;" id="XMLID_5363_"/>
				<rect height="3.251" width="16.945" style="fill:#EBEBEB;" y="233.712" x="150.191" id="XMLID_5362_"/>
				<rect height="3.251" width="16.945" style="fill:#EBEBEB;" y="228.864" x="143.549" id="XMLID_5361_"/>
				<rect height="3.251" width="8.923" style="fill:#EBEBEB;" y="240.404" x="162.928" id="XMLID_5360_"/>
				<path d="M278.645,233.712h-65.924c0.018,0.018,0.035,0.038,0.054,0.056&#10;&#9;&#9;&#9;&#9;&#9;c1.136,1.136,2.301,2.201,3.496,3.195h58.823c1.195-0.994,2.361-2.059,3.497-3.195&#10;&#9;&#9;&#9;&#9;&#9;C278.609,233.749,278.626,233.73,278.645,233.712z" style="fill:#EBEBEB;" id="XMLID_5359_"/>
				<rect height="3.251" width="16.945" style="fill:#EBEBEB;" y="233.712" x="366.224" id="XMLID_5358_"/>
				<polygon points="168.736,124.495 148.017,124.495 145.452,128.895 168.736,128.895" style="fill:#EBEBEB;" id="XMLID_5357_"/>
				<path d="M280.191,128.005c-1.258-1.263-2.559-2.425-3.891-3.513h-58.035&#10;&#9;&#9;&#9;&#9;&#9;c-1.333,1.087-2.633,2.249-3.891,3.513c-0.293,0.293-0.57,0.592-0.853,0.89h67.523&#10;&#9;&#9;&#9;&#9;&#9;C280.761,128.597,280.484,128.298,280.191,128.005z M260.805,127.835h-7.676v-2.281h7.676V127.835z" style="fill:#EBEBEB;" id="XMLID_5354_"/>
				<polygon points="361.484,128.895 384.768,128.895 384.768,124.495 364.049,124.495" style="fill:#EBEBEB;" id="XMLID_5353_"/>
				<rect height="0.944" width="21.517" style="fill:#EBEBEB;" y="128.895" x="157.094" id="XMLID_5352_"/>
				<rect height="0.944" width="21.517" style="fill:#EBEBEB;" y="135.036" x="196.381" id="XMLID_5351_"/>
				<rect height="0.944" width="21.517" style="fill:#EBEBEB;" y="173.783" x="286.26" id="XMLID_5350_"/>
				<rect height="0.944" width="21.517" style="fill:#EBEBEB;" y="179.686" x="316.153" id="XMLID_5349_"/>
				<rect height="0.944" width="21.517" style="fill:#EBEBEB;" y="213.799" x="350.723" id="XMLID_5348_"/>
				<rect height="0.944" width="21.517" style="fill:#EBEBEB;" y="133.037" x="377.208" id="XMLID_5347_"/>
				<rect height="0.944" width="21.517" style="fill:#EBEBEB;" y="130.705" x="341.596" id="XMLID_5346_"/>
				<rect height="2.281" width="16.603" style="fill:#EBEBEB;" y="135.508" x="133.736" id="XMLID_5345_"/>
				<rect height="2.281" width="16.603" style="fill:#EBEBEB;" y="178.447" x="101.761" id="XMLID_5344_"/>
				<rect height="2.281" width="21.517" style="fill:#EBEBEB;" y="127.754" x="263.575" id="XMLID_5343_"/>
				<rect height="1.141" width="9.883" style="fill:#EBEBEB;" y="179.588" x="215.978" id="XMLID_5342_"/>
				<rect height="4.399" width="3.904" style="fill:#EBEBEB;" y="142.175" x="178.117" id="XMLID_5341_"/>
				<rect height="4.399" width="8.888" style="fill:#EBEBEB;" y="176.247" x="164.811" id="XMLID_5340_"/>
				<rect height="4.399" width="3.904" style="fill:#EBEBEB;" y="142.175" x="391.589" id="XMLID_5339_"/>
				<rect height="4.399" width="3.904" style="fill:#EBEBEB;" y="131.782" x="294" id="XMLID_5338_"/>
			</g>
			<g id="XMLID_5102_">
				<rect height="3.544" width="2.513" style="fill:#EBEBEB;" y="381.877" x="143.99" id="XMLID_5336_"/>
				<path d="M153.458,377.27c0.481-0.482,0.872-1.002,1.173-1.56h-3.208&#10;&#9;&#9;&#9;&#9;&#9;c-0.746,0.646-1.62,0.971-2.625,0.971h-2.294v-0.971h-2.513v3.136h6.989C151.892,378.53,152.72,378.009,153.458,377.27z" style="fill:#EBEBEB;" id="XMLID_5335_"/>
				<path d="M155.221,371.089c-0.028-0.126-0.056-0.251-0.091-0.374h-2.715&#10;&#9;&#9;&#9;&#9;&#9;c0.064,0.122,0.121,0.247,0.171,0.374H155.221z" style="fill:#EBEBEB;" id="XMLID_5334_"/>
				<rect height="0.533" width="2.513" style="fill:#EBEBEB;" y="379.639" x="143.249" id="XMLID_5333_"/>
				<path d="M155.352,371.882h-2.549c0.038,0.229,0.06,0.464,0.06,0.708&#10;&#9;&#9;&#9;&#9;&#9;c0,0.876-0.241,1.651-0.718,2.327h2.836c0.266-0.721,0.407-1.494,0.407-2.327C155.388,372.349,155.375,372.114,155.352,371.882z" style="fill:#EBEBEB;" id="XMLID_5332_"/>
				<rect height="3.035" width="2.513" style="fill:#EBEBEB;" y="371.882" x="143.99" id="XMLID_5331_"/>
				<rect height="0.374" width="2.513" style="fill:#EBEBEB;" y="370.715" x="143.99" id="XMLID_5330_"/>
				<path d="M146.503,368.524h2.294c1.009,0,1.886,0.327,2.634,0.974h3.205&#10;&#9;&#9;&#9;&#9;&#9;c-0.302-0.56-0.694-1.083-1.178-1.569c-1.076-1.076-2.395-1.72-3.957-1.93h-5.511v3.499h2.513V368.524z" style="fill:#EBEBEB;" id="XMLID_5329_"/>
				<polygon points="163.508,365.999 162.149,365.999 160.876,369.498 164.781,369.498" style="fill:#EBEBEB;" id="XMLID_5328_"/>
				<polygon points="155.084,385.42 157.767,385.42 159.05,381.877 156.373,381.877" style="fill:#EBEBEB;" id="XMLID_5327_"/>
				<polygon points="160.255,378.55 165.402,378.55 165.51,378.846 168.181,378.846 &#10;&#9;&#9;&#9;&#9;&#9;167.041,375.71 164.372,375.71 164.492,376.038 161.178,376.038 161.297,375.71 158.617,375.71 157.476,378.846 &#10;&#9;&#9;&#9;&#9;&#9;160.148,378.846" style="fill:#EBEBEB;" id="XMLID_5326_"/>
				<polygon points="165.36,371.089 165.224,370.715 160.434,370.715 160.298,371.089" style="fill:#EBEBEB;" id="XMLID_5325_"/>
				<polygon points="166.752,374.917 165.648,371.882 162.973,371.882 164.082,374.917" style="fill:#EBEBEB;" id="XMLID_5324_"/>
				<polygon points="162.685,371.882 160.009,371.882 158.905,374.917 161.584,374.917" style="fill:#EBEBEB;" id="XMLID_5323_"/>
				<polygon points="156.446,379.639 156.252,380.171 158.927,380.171 159.12,379.639" style="fill:#EBEBEB;" id="XMLID_5322_"/>
				<polygon points="165.057,379.639 165.251,380.171 167.922,380.171 167.728,379.639" style="fill:#EBEBEB;" id="XMLID_5321_"/>
				<polygon points="167.903,385.42 170.573,385.42 169.284,381.877 166.613,381.877" style="fill:#EBEBEB;" id="XMLID_5320_"/>
				<path d="M176.373,371.089c0.105-0.128,0.221-0.251,0.336-0.374h-3.175&#10;&#9;&#9;&#9;&#9;&#9;c-0.073,0.124-0.144,0.248-0.212,0.374H176.373z" style="fill:#EBEBEB;" id="XMLID_5319_"/>
				<path d="M172.248,379.639c0.077,0.18,0.161,0.357,0.25,0.533h3.005&#10;&#9;&#9;&#9;&#9;&#9;c-0.135-0.174-0.262-0.351-0.378-0.533H172.248z" style="fill:#EBEBEB;" id="XMLID_5318_"/>
				<path d="M182.129,368.33c1.332,0,2.626,0.395,3.884,1.169h2.78l0.631-0.574&#10;&#9;&#9;&#9;&#9;&#9;c-2.299-2.096-4.73-3.144-7.295-3.144c-2.743,0-5.082,0.971-7.016,2.913c-0.26,0.261-0.501,0.529-0.725,0.805h3.743&#10;&#9;&#9;&#9;&#9;&#9;C179.305,368.722,180.637,368.33,182.129,368.33z" style="fill:#EBEBEB;" id="XMLID_5317_"/>
				<path d="M182.129,383.102c-1.529,0-2.892-0.409-4.088-1.225h-3.69&#10;&#9;&#9;&#9;&#9;&#9;c0.235,0.291,0.488,0.574,0.763,0.849c1.934,1.934,4.273,2.901,7.016,2.901c2.573,0,4.859-0.955,6.858-2.865v-0.885h-2.731&#10;&#9;&#9;&#9;&#9;&#9;C185.143,382.69,183.77,383.102,182.129,383.102z" style="fill:#EBEBEB;" id="XMLID_5316_"/>
				<rect height="0.533" width="2.513" style="fill:#EBEBEB;" y="379.639" x="185.733" id="XMLID_5315_"/>
				<rect height="2.99" width="2.513" style="fill:#EBEBEB;" y="375.856" x="186.474" id="XMLID_5314_"/>
				<path d="M174.788,374.917c0.108-1.108,0.453-2.118,1.023-3.035h-2.865&#10;&#9;&#9;&#9;&#9;&#9;c-0.394,0.946-0.628,1.958-0.704,3.035H174.788z" style="fill:#EBEBEB;" id="XMLID_5313_"/>
				<path d="M172.212,375.71c0,1.112,0.162,2.157,0.48,3.136h2.738&#10;&#9;&#9;&#9;&#9;&#9;c-0.448-0.952-0.681-1.995-0.681-3.136H172.212z" style="fill:#EBEBEB;" id="XMLID_5312_"/>
				<polygon points="203.225,374.917 203.225,374.447 195.274,374.447 195.274,371.882 &#10;&#9;&#9;&#9;&#9;&#9;192.762,371.882 192.762,374.917" style="fill:#EBEBEB;" id="XMLID_5311_"/>
				<rect height="0.533" width="2.513" style="fill:#EBEBEB;" y="379.639" x="192.02" id="XMLID_5310_"/>
				<polygon points="195.274,368.512 203.225,368.512 203.225,365.999 192.762,365.999 &#10;&#9;&#9;&#9;&#9;&#9;192.762,369.498 195.274,369.498" style="fill:#EBEBEB;" id="XMLID_5309_"/>
				<rect height="0.374" width="2.513" style="fill:#EBEBEB;" y="370.715" x="192.762" id="XMLID_5308_"/>
				<polygon points="192.762,385.42 203.225,385.42 203.225,382.896 195.274,382.896 &#10;&#9;&#9;&#9;&#9;&#9;195.274,381.877 192.762,381.877" style="fill:#EBEBEB;" id="XMLID_5307_"/>
				<polygon points="203.225,376.96 203.225,375.71 192.762,375.71 192.762,378.846 &#10;&#9;&#9;&#9;&#9;&#9;195.274,378.846 195.274,376.96" style="fill:#EBEBEB;" id="XMLID_5306_"/>
				<rect height="3.136" width="2.525" style="fill:#EBEBEB;" y="375.71" x="225.462" id="XMLID_5305_"/>
				<rect height="0.374" width="2.525" style="fill:#EBEBEB;" y="370.715" x="225.462" id="XMLID_5304_"/>
				<polygon points="220.17,375.71 221.985,378.846 224.875,378.846 223.063,375.71" style="fill:#EBEBEB;" id="XMLID_5303_"/>
				<rect height="3.136" width="2.513" style="fill:#EBEBEB;" y="375.71" x="215.157" id="XMLID_5302_"/>
				<polygon points="220.393,371.089 220.176,370.715 215.157,370.715 215.157,371.089" style="fill:#EBEBEB;" id="XMLID_5301_"/>
				<polygon points="217.451,365.999 215.157,365.999 215.157,369.498 219.473,369.498" style="fill:#EBEBEB;" id="XMLID_5300_"/>
				<polygon points="225.79,385.42 227.987,385.42 227.987,381.877 223.739,381.877" style="fill:#EBEBEB;" id="XMLID_5299_"/>
				<rect height="3.499" width="2.525" style="fill:#EBEBEB;" y="365.999" x="225.462" id="XMLID_5298_"/>
				<rect height="3.035" width="2.513" style="fill:#EBEBEB;" y="371.882" x="215.157" id="XMLID_5297_"/>
				<polygon points="224.35,379.639 224.35,379.861 224.221,379.639 221.331,379.639 &#10;&#9;&#9;&#9;&#9;&#9;221.64,380.171 226.875,380.171 226.875,379.639" style="fill:#EBEBEB;" id="XMLID_5296_"/>
				<rect height="3.035" width="2.525" style="fill:#EBEBEB;" y="371.882" x="225.462" id="XMLID_5295_"/>
				<rect height="0.533" width="2.513" style="fill:#EBEBEB;" y="379.639" x="214.045" id="XMLID_5294_"/>
				<rect height="3.544" width="2.513" style="fill:#EBEBEB;" y="381.877" x="215.157" id="XMLID_5293_"/>
				<polygon points="222.605,374.917 220.851,371.882 217.955,371.882 219.711,374.917" style="fill:#EBEBEB;" id="XMLID_5292_"/>
				<path d="M231.003,379.639c0.078,0.18,0.162,0.357,0.252,0.533h3.007&#10;&#9;&#9;&#9;&#9;&#9;c-0.135-0.174-0.263-0.351-0.38-0.533H231.003z" style="fill:#EBEBEB;" id="XMLID_5291_"/>
				<path d="M246.429,379.639c-0.117,0.181-0.244,0.359-0.379,0.533h3.003&#10;&#9;&#9;&#9;&#9;&#9;c0.09-0.175,0.174-0.353,0.252-0.533H246.429z" style="fill:#EBEBEB;" id="XMLID_5290_"/>
				<path d="M235.456,371.089c0.103-0.127,0.215-0.251,0.328-0.374h-3.151&#10;&#9;&#9;&#9;&#9;&#9;c-0.073,0.124-0.143,0.248-0.21,0.374H235.456z" style="fill:#EBEBEB;" id="XMLID_5289_"/>
				<path d="M250.109,371.089c-0.067-0.126-0.137-0.251-0.21-0.374h-3.151&#10;&#9;&#9;&#9;&#9;&#9;c0.113,0.123,0.225,0.247,0.328,0.374H250.109z" style="fill:#EBEBEB;" id="XMLID_5288_"/>
				<path d="M248.669,375.71c-0.003,1.139-0.238,2.183-0.69,3.136h2.739&#10;&#9;&#9;&#9;&#9;&#9;c0.322-0.98,0.486-2.024,0.488-3.136H248.669z" style="fill:#EBEBEB;" id="XMLID_5287_"/>
				<path d="M241.266,383.102c-1.531,0-2.896-0.409-4.094-1.225h-3.688&#10;&#9;&#9;&#9;&#9;&#9;c0.233,0.286,0.483,0.566,0.754,0.837c1.942,1.942,4.285,2.913,7.028,2.913c2.743,0,5.086-0.971,7.028-2.913&#10;&#9;&#9;&#9;&#9;&#9;c0.271-0.271,0.521-0.55,0.754-0.837h-3.68C244.17,382.694,242.803,383.102,241.266,383.102z" style="fill:#EBEBEB;" id="XMLID_5286_"/>
				<path d="M233.898,374.917c0.104-1.108,0.443-2.117,1.004-3.035h-2.853&#10;&#9;&#9;&#9;&#9;&#9;c-0.391,0.946-0.621,1.958-0.695,3.035H233.898z" style="fill:#EBEBEB;" id="XMLID_5285_"/>
				<path d="M231.325,375.71c0.002,1.112,0.167,2.156,0.488,3.136h2.74&#10;&#9;&#9;&#9;&#9;&#9;c-0.453-0.953-0.688-1.997-0.691-3.136H231.325z" style="fill:#EBEBEB;" id="XMLID_5284_"/>
				<path d="M241.266,368.281c1.534,0,2.899,0.406,4.095,1.217h3.69&#10;&#9;&#9;&#9;&#9;&#9;c-0.234-0.288-0.485-0.569-0.757-0.841c-1.942-1.942-4.285-2.913-7.028-2.913c-2.743,0-5.086,0.971-7.028,2.913&#10;&#9;&#9;&#9;&#9;&#9;c-0.272,0.272-0.523,0.553-0.757,0.841h3.69C238.367,368.687,239.732,368.281,241.266,368.281z" style="fill:#EBEBEB;" id="XMLID_5283_"/>
				<path d="M251.178,374.917c-0.074-1.076-0.304-2.089-0.695-3.035h-2.853&#10;&#9;&#9;&#9;&#9;&#9;c0.56,0.917,0.9,1.927,1.004,3.035H251.178z" style="fill:#EBEBEB;" id="XMLID_5282_"/>
				<rect height="3.544" width="2.525" style="fill:#EBEBEB;" y="381.877" x="256.985" id="XMLID_5281_"/>
				<rect height="3.035" width="2.525" style="fill:#EBEBEB;" y="371.882" x="256.985" id="XMLID_5280_"/>
				<rect height="0.374" width="2.525" style="fill:#EBEBEB;" y="370.715" x="256.985" id="XMLID_5279_"/>
				<rect height="3.136" width="2.525" style="fill:#EBEBEB;" y="375.71" x="256.985" id="XMLID_5278_"/>
				<polygon points="259.51,368.512 264.038,368.512 264.038,365.999 252.458,365.999 &#10;&#9;&#9;&#9;&#9;&#9;252.458,368.512 256.985,368.512 256.985,369.498 259.51,369.498" style="fill:#EBEBEB;" id="XMLID_5277_"/>
				<rect height="0.533" width="2.525" style="fill:#EBEBEB;" y="379.639" x="255.873" id="XMLID_5276_"/>
				<rect height="0.374" width="2.513" style="fill:#EBEBEB;" y="370.715" x="275.059" id="XMLID_5275_"/>
				<rect height="0.533" width="2.512" style="fill:#EBEBEB;" y="379.639" x="273.947" id="XMLID_5274_"/>
				<rect height="3.544" width="2.513" style="fill:#EBEBEB;" y="381.877" x="275.059" id="XMLID_5273_"/>
				<polygon points="284.406,376.96 284.406,375.71 275.059,375.71 275.059,378.846 &#10;&#9;&#9;&#9;&#9;&#9;277.572,378.846 277.572,376.96" style="fill:#EBEBEB;" id="XMLID_5272_"/>
				<polygon points="277.572,368.512 284.406,368.512 284.406,365.999 275.059,365.999 &#10;&#9;&#9;&#9;&#9;&#9;275.059,369.498 277.572,369.498" style="fill:#EBEBEB;" id="XMLID_5271_"/>
				<polygon points="284.406,374.917 284.406,374.447 277.572,374.447 277.572,371.882 &#10;&#9;&#9;&#9;&#9;&#9;275.059,371.882 275.059,374.917" style="fill:#EBEBEB;" id="XMLID_5270_"/>
				<path d="M297.381,368.281c1.534,0,2.899,0.406,4.095,1.217h3.69&#10;&#9;&#9;&#9;&#9;&#9;c-0.234-0.288-0.485-0.569-0.757-0.841c-1.942-1.942-4.285-2.913-7.028-2.913c-2.743,0-5.086,0.971-7.028,2.913&#10;&#9;&#9;&#9;&#9;&#9;c-0.272,0.272-0.523,0.553-0.757,0.841h3.69C294.482,368.687,295.847,368.281,297.381,368.281z" style="fill:#EBEBEB;" id="XMLID_5269_"/>
				<path d="M287.44,375.71c0.002,1.112,0.167,2.156,0.488,3.136h2.741&#10;&#9;&#9;&#9;&#9;&#9;c-0.453-0.953-0.688-1.997-0.691-3.136H287.44z" style="fill:#EBEBEB;" id="XMLID_5268_"/>
				<path d="M297.381,383.102c-1.531,0-2.896-0.409-4.094-1.225h-3.688&#10;&#9;&#9;&#9;&#9;&#9;c0.233,0.286,0.483,0.566,0.754,0.837c1.942,1.942,4.285,2.913,7.028,2.913c2.743,0,5.086-0.971,7.028-2.913&#10;&#9;&#9;&#9;&#9;&#9;c0.271-0.271,0.521-0.55,0.754-0.837h-3.68C300.286,382.694,298.918,383.102,297.381,383.102z" style="fill:#EBEBEB;" id="XMLID_5267_"/>
				<path d="M290.013,374.917c0.104-1.108,0.443-2.117,1.004-3.035h-2.852&#10;&#9;&#9;&#9;&#9;&#9;c-0.391,0.946-0.621,1.958-0.695,3.035H290.013z" style="fill:#EBEBEB;" id="XMLID_5266_"/>
				<path d="M307.293,374.917c-0.074-1.076-0.304-2.089-0.695-3.035h-2.853&#10;&#9;&#9;&#9;&#9;&#9;c0.56,0.917,0.9,1.927,1.004,3.035H307.293z" style="fill:#EBEBEB;" id="XMLID_5265_"/>
				<path d="M287.118,379.639c0.078,0.18,0.162,0.357,0.252,0.533h3.007&#10;&#9;&#9;&#9;&#9;&#9;c-0.135-0.174-0.263-0.351-0.38-0.533H287.118z" style="fill:#EBEBEB;" id="XMLID_5264_"/>
				<path d="M302.545,379.639c-0.117,0.181-0.244,0.359-0.379,0.533h3.003&#10;&#9;&#9;&#9;&#9;&#9;c0.09-0.175,0.174-0.353,0.252-0.533H302.545z" style="fill:#EBEBEB;" id="XMLID_5263_"/>
				<path d="M304.784,375.71c-0.003,1.139-0.238,2.183-0.69,3.136h2.739&#10;&#9;&#9;&#9;&#9;&#9;c0.322-0.98,0.486-2.024,0.489-3.136H304.784z" style="fill:#EBEBEB;" id="XMLID_5262_"/>
				<path d="M291.571,371.089c0.103-0.127,0.215-0.251,0.328-0.374h-3.151&#10;&#9;&#9;&#9;&#9;&#9;c-0.073,0.124-0.143,0.248-0.21,0.374H291.571z" style="fill:#EBEBEB;" id="XMLID_5261_"/>
				<path d="M306.224,371.089c-0.067-0.126-0.137-0.251-0.21-0.374h-3.151&#10;&#9;&#9;&#9;&#9;&#9;c0.113,0.123,0.225,0.247,0.328,0.374H306.224z" style="fill:#EBEBEB;" id="XMLID_5260_"/>
				<rect height="3.136" width="2.525" style="fill:#EBEBEB;" y="375.71" x="321.354" id="XMLID_5259_"/>
				<rect height="3.136" width="2.525" style="fill:#EBEBEB;" y="375.71" x="310.673" id="XMLID_5258_"/>
				<rect height="0.374" width="2.525" style="fill:#EBEBEB;" y="370.715" x="321.354" id="XMLID_5257_"/>
				<path d="M317.276,383.041c-1.109,0-2.059-0.389-2.849-1.164h-3.094&#10;&#9;&#9;&#9;&#9;&#9;c0.314,0.634,0.735,1.224,1.276,1.765c1.29,1.291,2.846,1.936,4.667,1.936c1.821,0,3.378-0.647,4.673-1.942&#10;&#9;&#9;&#9;&#9;&#9;c0.524-0.528,0.944-1.115,1.264-1.759h-3.076C319.349,382.652,318.396,383.041,317.276,383.041z" style="fill:#EBEBEB;" id="XMLID_5256_"/>
				<rect height="0.374" width="2.525" style="fill:#EBEBEB;" y="370.715" x="310.673" id="XMLID_5255_"/>
				<rect height="3.035" width="2.525" style="fill:#EBEBEB;" y="371.882" x="310.673" id="XMLID_5254_"/>
				<path d="M322.767,379.639h-2.579c-0.028,0.182-0.063,0.361-0.114,0.533h2.605&#10;&#9;&#9;&#9;&#9;&#9;c0.033-0.162,0.064-0.325,0.087-0.492V379.639z" style="fill:#EBEBEB;" id="XMLID_5253_"/>
				<rect height="3.035" width="2.525" style="fill:#EBEBEB;" y="371.882" x="321.354" id="XMLID_5252_"/>
				<path d="M309.59,379.639c0.017,0.181,0.044,0.357,0.074,0.533h2.591&#10;&#9;&#9;&#9;&#9;&#9;c-0.052-0.172-0.088-0.351-0.116-0.533H309.59z" style="fill:#EBEBEB;" id="XMLID_5251_"/>
				<rect height="3.499" width="2.525" style="fill:#EBEBEB;" y="365.999" x="310.673" id="XMLID_5250_"/>
				<rect height="3.499" width="2.525" style="fill:#EBEBEB;" y="365.999" x="321.354" id="XMLID_5249_"/>
				<rect height="3.136" width="2.513" style="fill:#EBEBEB;" y="375.71" x="327.52" id="XMLID_5248_"/>
				<rect height="3.035" width="2.525" style="fill:#EBEBEB;" y="371.882" x="337.826" id="XMLID_5247_"/>
				<polygon points="332.534,375.71 334.349,378.846 337.239,378.846 335.427,375.71" style="fill:#EBEBEB;" id="XMLID_5246_"/>
				<rect height="3.035" width="2.513" style="fill:#EBEBEB;" y="371.882" x="327.52" id="XMLID_5245_"/>
				<polygon points="336.714,379.639 336.714,379.861 336.585,379.639 333.695,379.639 &#10;&#9;&#9;&#9;&#9;&#9;334.004,380.171 339.238,380.171 339.238,379.639" style="fill:#EBEBEB;" id="XMLID_5244_"/>
				<polygon points="329.814,365.999 327.52,365.999 327.52,369.498 331.837,369.498" style="fill:#EBEBEB;" id="XMLID_5243_"/>
				<rect height="3.136" width="2.525" style="fill:#EBEBEB;" y="375.71" x="337.826" id="XMLID_5242_"/>
				<rect height="0.533" width="2.513" style="fill:#EBEBEB;" y="379.639" x="326.408" id="XMLID_5241_"/>
				<rect height="3.499" width="2.525" style="fill:#EBEBEB;" y="365.999" x="337.826" id="XMLID_5240_"/>
				<polygon points="334.968,374.917 333.214,371.882 330.319,371.882 332.075,374.917" style="fill:#EBEBEB;" id="XMLID_5239_"/>
				<polygon points="338.154,385.42 340.351,385.42 340.351,381.877 336.103,381.877" style="fill:#EBEBEB;" id="XMLID_5238_"/>
				<rect height="3.544" width="2.513" style="fill:#EBEBEB;" y="381.877" x="327.52" id="XMLID_5237_"/>
				<rect height="0.374" width="2.525" style="fill:#EBEBEB;" y="370.715" x="337.826" id="XMLID_5236_"/>
				<polygon points="332.756,371.089 332.54,370.715 327.52,370.715 327.52,371.089" style="fill:#EBEBEB;" id="XMLID_5235_"/>
				<path d="M352.525,371.882c0.566,0.918,0.909,1.928,1.017,3.035h2.546&#10;&#9;&#9;&#9;&#9;&#9;c-0.077-1.076-0.31-2.088-0.703-3.035H352.525z" style="fill:#EBEBEB;" id="XMLID_5234_"/>
				<path d="M346.505,382.871v-0.995h-2.512v3.544h1.845&#10;&#9;&#9;&#9;&#9;&#9;c3.156-0.016,5.616-0.911,7.38-2.683c0.277-0.278,0.532-0.566,0.77-0.861h-3.747&#10;&#9;&#9;&#9;&#9;&#9;C349.178,382.536,347.935,382.871,346.505,382.871z" style="fill:#EBEBEB;" id="XMLID_5233_"/>
				<path d="M350.977,380.171h3.003c0.089-0.175,0.172-0.353,0.25-0.533h-2.876&#10;&#9;&#9;&#9;&#9;&#9;C351.238,379.82,351.112,379.997,350.977,380.171z" style="fill:#EBEBEB;" id="XMLID_5232_"/>
				<rect height="3.136" width="2.513" style="fill:#EBEBEB;" y="375.71" x="343.992" id="XMLID_5231_"/>
				<path d="M346.505,368.56c1.392,0,2.606,0.318,3.649,0.938h3.796&#10;&#9;&#9;&#9;&#9;&#9;c-0.227-0.279-0.47-0.552-0.732-0.816c-1.764-1.772-4.224-2.666-7.38-2.683h-1.845v3.499h2.512V368.56z" style="fill:#EBEBEB;" id="XMLID_5230_"/>
				<rect height="0.533" width="2.513" style="fill:#EBEBEB;" y="379.639" x="342.88" id="XMLID_5229_"/>
				<rect height="0.374" width="2.513" style="fill:#EBEBEB;" y="370.715" x="343.992" id="XMLID_5228_"/>
				<rect height="3.035" width="2.513" style="fill:#EBEBEB;" y="371.882" x="343.992" id="XMLID_5227_"/>
				<path d="M351.967,371.089h3.042c-0.067-0.126-0.138-0.25-0.211-0.374h-3.162&#10;&#9;&#9;&#9;&#9;&#9;C351.75,370.839,351.864,370.962,351.967,371.089z" style="fill:#EBEBEB;" id="XMLID_5226_"/>
				<path d="M352.902,378.846h2.737c0.317-0.98,0.479-2.025,0.479-3.136h-2.537&#10;&#9;&#9;&#9;&#9;&#9;C353.581,376.85,353.349,377.893,352.902,378.846z" style="fill:#EBEBEB;" id="XMLID_5225_"/>
				<rect height="1.217" width="2.513" style="fill:#EBEBEB;" y="369.498" x="143.99" id="XMLID_5224_"/>
				<path d="M151.668,369.714c0.31,0.308,0.558,0.643,0.747,1.001h2.715&#10;&#9;&#9;&#9;&#9;&#9;c-0.122-0.423-0.285-0.829-0.494-1.217h-3.205C151.511,369.567,151.591,369.637,151.668,369.714z" style="fill:#EBEBEB;" id="XMLID_5223_"/>
				<polygon points="165.224,370.715 164.781,369.498 160.876,369.498 160.434,370.715" style="fill:#EBEBEB;" id="XMLID_5222_"/>
				<path d="M176.709,370.715c0.07-0.075,0.133-0.152,0.206-0.225&#10;&#9;&#9;&#9;&#9;&#9;c0.384-0.383,0.79-0.711,1.215-0.992h-3.743c-0.32,0.391-0.604,0.797-0.853,1.217H176.709z" style="fill:#EBEBEB;" id="XMLID_5221_"/>
				<path d="M187.542,370.636l1.251-1.138h-2.78&#10;&#9;&#9;&#9;&#9;&#9;C186.529,369.815,187.039,370.189,187.542,370.636z" style="fill:#EBEBEB;" id="XMLID_5220_"/>
				<rect height="1.217" width="2.513" style="fill:#EBEBEB;" y="369.498" x="192.762" id="XMLID_5219_"/>
				<polygon points="219.064,370.715 218.361,369.498 214.045,369.498 214.045,370.715" style="fill:#EBEBEB;" id="XMLID_5218_"/>
				<rect height="1.217" width="2.525" style="fill:#EBEBEB;" y="369.498" x="224.35" id="XMLID_5217_"/>
				<path d="M234.672,370.715c0.082-0.089,0.157-0.181,0.244-0.267&#10;&#9;&#9;&#9;&#9;&#9;c0.362-0.362,0.743-0.678,1.142-0.95h-3.69c-0.318,0.391-0.6,0.797-0.848,1.217H234.672z" style="fill:#EBEBEB;" id="XMLID_5216_"/>
				<path d="M245.392,370.448c0.087,0.087,0.163,0.178,0.244,0.267h3.151&#10;&#9;&#9;&#9;&#9;&#9;c-0.248-0.42-0.53-0.826-0.848-1.217h-3.69C244.649,369.77,245.03,370.086,245.392,370.448z" style="fill:#EBEBEB;" id="XMLID_5215_"/>
				<rect height="1.217" width="2.525" style="fill:#EBEBEB;" y="369.498" x="255.873" id="XMLID_5214_"/>
				<rect height="1.217" width="2.512" style="fill:#EBEBEB;" y="369.498" x="273.947" id="XMLID_5213_"/>
				<path d="M301.507,370.448c0.087,0.087,0.163,0.178,0.244,0.267h3.151&#10;&#9;&#9;&#9;&#9;&#9;c-0.247-0.42-0.53-0.826-0.848-1.217h-3.69C300.764,369.77,301.145,370.086,301.507,370.448z" style="fill:#EBEBEB;" id="XMLID_5212_"/>
				<path d="M290.787,370.715c0.082-0.089,0.157-0.181,0.244-0.267&#10;&#9;&#9;&#9;&#9;&#9;c0.362-0.362,0.743-0.678,1.143-0.95h-3.69c-0.318,0.391-0.6,0.797-0.848,1.217H290.787z" style="fill:#EBEBEB;" id="XMLID_5211_"/>
				<rect height="1.217" width="2.525" style="fill:#EBEBEB;" y="369.498" x="309.56" id="XMLID_5210_"/>
				<rect height="1.217" width="2.525" style="fill:#EBEBEB;" y="369.498" x="320.242" id="XMLID_5209_"/>
				<rect height="1.217" width="2.525" style="fill:#EBEBEB;" y="369.498" x="336.714" id="XMLID_5208_"/>
				<polygon points="331.428,370.715 330.725,369.498 326.408,369.498 326.408,370.715" style="fill:#EBEBEB;" id="XMLID_5207_"/>
				<rect height="1.217" width="2.513" style="fill:#EBEBEB;" y="369.498" x="342.88" id="XMLID_5206_"/>
				<path d="M350.309,370.478c0.077,0.077,0.143,0.158,0.215,0.237h3.162&#10;&#9;&#9;&#9;&#9;&#9;c-0.248-0.42-0.531-0.826-0.849-1.217h-3.796C349.495,369.768,349.921,370.09,350.309,370.478z" style="fill:#EBEBEB;" id="XMLID_5205_"/>
				<rect height="1.706" width="2.513" style="fill:#EBEBEB;" y="380.171" x="143.99" id="XMLID_5204_"/>
				<polygon points="156.994,380.171 156.373,381.877 159.05,381.877 159.668,380.171" style="fill:#EBEBEB;" id="XMLID_5203_"/>
				<polygon points="165.992,380.171 166.613,381.877 169.284,381.877 168.664,380.171" style="fill:#EBEBEB;" id="XMLID_5202_"/>
				<path d="M186.474,380.171v1.547c-0.07,0.056-0.145,0.106-0.218,0.159h2.731v-1.706&#10;&#9;&#9;&#9;&#9;&#9;H186.474z" style="fill:#EBEBEB;" id="XMLID_5201_"/>
				<path d="M176.545,380.942c-0.248-0.247-0.466-0.506-0.671-0.77h-3.005&#10;&#9;&#9;&#9;&#9;&#9;c0.303,0.597,0.673,1.165,1.111,1.706h3.69C177.277,381.609,176.901,381.298,176.545,380.942z" style="fill:#EBEBEB;" id="XMLID_5200_"/>
				<rect height="1.706" width="2.513" style="fill:#EBEBEB;" y="380.171" x="192.762" id="XMLID_5199_"/>
				<rect height="1.706" width="2.513" style="fill:#EBEBEB;" y="380.171" x="215.157" id="XMLID_5198_"/>
				<polygon points="222.381,380.171 223.368,381.877 227.616,381.877 227.616,380.171" style="fill:#EBEBEB;" id="XMLID_5197_"/>
				<path d="M235.664,380.929c-0.243-0.243-0.458-0.498-0.661-0.758h-3.007&#10;&#9;&#9;&#9;&#9;&#9;c0.305,0.596,0.677,1.165,1.117,1.706h3.688C236.404,381.606,236.024,381.29,235.664,380.929z" style="fill:#EBEBEB;" id="XMLID_5196_"/>
				<path d="M246.792,380.171c-0.202,0.26-0.416,0.515-0.659,0.758&#10;&#9;&#9;&#9;&#9;&#9;c-0.36,0.361-0.739,0.677-1.136,0.948h3.68c0.44-0.541,0.812-1.109,1.117-1.706H246.792z" style="fill:#EBEBEB;" id="XMLID_5195_"/>
				<rect height="1.706" width="2.525" style="fill:#EBEBEB;" y="380.171" x="256.614" id="XMLID_5194_"/>
				<rect height="1.706" width="2.513" style="fill:#EBEBEB;" y="380.171" x="274.688" id="XMLID_5193_"/>
				<path d="M291.779,380.929c-0.243-0.243-0.458-0.498-0.661-0.758h-3.007&#10;&#9;&#9;&#9;&#9;&#9;c0.305,0.596,0.677,1.165,1.117,1.706h3.688C292.519,381.606,292.14,381.29,291.779,380.929z" style="fill:#EBEBEB;" id="XMLID_5192_"/>
				<path d="M302.907,380.171c-0.202,0.26-0.416,0.515-0.659,0.758&#10;&#9;&#9;&#9;&#9;&#9;c-0.36,0.361-0.739,0.677-1.136,0.948h3.68c0.44-0.541,0.812-1.109,1.117-1.706H302.907z" style="fill:#EBEBEB;" id="XMLID_5191_"/>
				<path d="M314.022,381.846c-0.496-0.496-0.837-1.055-1.025-1.675h-2.591&#10;&#9;&#9;&#9;&#9;&#9;c0.104,0.602,0.29,1.17,0.556,1.706h3.094C314.045,381.866,314.033,381.857,314.022,381.846z" style="fill:#EBEBEB;" id="XMLID_5190_"/>
				<path d="M320.816,380.171c-0.186,0.625-0.527,1.185-1.022,1.68&#10;&#9;&#9;&#9;&#9;&#9;c-0.009,0.009-0.019,0.016-0.028,0.025h3.076c0.262-0.529,0.455-1.098,0.579-1.706H320.816z" style="fill:#EBEBEB;" id="XMLID_5189_"/>
				<rect height="1.706" width="2.513" style="fill:#EBEBEB;" y="380.171" x="327.15" id="XMLID_5188_"/>
				<polygon points="334.745,380.171 335.732,381.877 339.98,381.877 339.98,380.171" style="fill:#EBEBEB;" id="XMLID_5187_"/>
				<rect height="1.706" width="2.513" style="fill:#EBEBEB;" y="380.171" x="343.621" id="XMLID_5186_"/>
				<path d="M351.05,380.942c-0.363,0.366-0.759,0.674-1.181,0.935h3.747&#10;&#9;&#9;&#9;&#9;&#9;c0.435-0.541,0.804-1.109,1.106-1.706h-3.003C351.514,380.436,351.297,380.695,351.05,380.942z" style="fill:#EBEBEB;" id="XMLID_5185_"/>
				<rect height="0.793" width="2.513" style="fill:#EBEBEB;" y="371.089" x="144.732" id="XMLID_5184_"/>
				<path d="M155.963,371.089h-2.635c0.1,0.253,0.172,0.517,0.217,0.793h2.549&#10;&#9;&#9;&#9;&#9;&#9;C156.067,371.611,156.02,371.348,155.963,371.089z" style="fill:#EBEBEB;" id="XMLID_5183_"/>
				<polygon points="163.797,371.882 163.941,371.486 164.086,371.882 166.76,371.882 &#10;&#9;&#9;&#9;&#9;&#9;166.472,371.089 161.41,371.089 161.121,371.882" style="fill:#EBEBEB;" id="XMLID_5182_"/>
				<path d="M175.811,371.882c0.169-0.272,0.352-0.538,0.562-0.793h-3.051&#10;&#9;&#9;&#9;&#9;&#9;c-0.138,0.259-0.264,0.523-0.376,0.793H175.811z" style="fill:#EBEBEB;" id="XMLID_5181_"/>
				<rect height="0.793" width="2.513" style="fill:#EBEBEB;" y="371.089" x="192.762" id="XMLID_5180_"/>
				<polygon points="218.781,371.882 218.781,371.389 219.067,371.882 221.963,371.882 &#10;&#9;&#9;&#9;&#9;&#9;221.505,371.089 216.269,371.089 216.269,371.882" style="fill:#EBEBEB;" id="XMLID_5179_"/>
				<rect height="0.793" width="2.525" style="fill:#EBEBEB;" y="371.089" x="226.574" id="XMLID_5178_"/>
				<path d="M251.595,371.882c-0.111-0.27-0.237-0.534-0.374-0.793h-3.033&#10;&#9;&#9;&#9;&#9;&#9;c0.206,0.255,0.388,0.521,0.555,0.793H251.595z" style="fill:#EBEBEB;" id="XMLID_5177_"/>
				<path d="M236.014,371.882c0.166-0.272,0.348-0.538,0.555-0.793h-3.033&#10;&#9;&#9;&#9;&#9;&#9;c-0.137,0.259-0.263,0.523-0.374,0.793H236.014z" style="fill:#EBEBEB;" id="XMLID_5176_"/>
				<rect height="0.793" width="2.525" style="fill:#EBEBEB;" y="371.089" x="258.097" id="XMLID_5175_"/>
				<rect height="0.793" width="2.513" style="fill:#EBEBEB;" y="371.089" x="276.171" id="XMLID_5174_"/>
				<path d="M292.129,371.882c0.166-0.272,0.348-0.538,0.555-0.793h-3.033&#10;&#9;&#9;&#9;&#9;&#9;c-0.137,0.259-0.263,0.523-0.374,0.793H292.129z" style="fill:#EBEBEB;" id="XMLID_5173_"/>
				<path d="M307.711,371.882c-0.111-0.27-0.237-0.534-0.374-0.793h-3.033&#10;&#9;&#9;&#9;&#9;&#9;c0.206,0.255,0.389,0.521,0.555,0.793H307.711z" style="fill:#EBEBEB;" id="XMLID_5172_"/>
				<rect height="0.793" width="2.525" style="fill:#EBEBEB;" y="371.089" x="311.785" id="XMLID_5171_"/>
				<rect height="0.793" width="2.525" style="fill:#EBEBEB;" y="371.089" x="322.466" id="XMLID_5170_"/>
				<rect height="0.793" width="2.525" style="fill:#EBEBEB;" y="371.089" x="338.938" id="XMLID_5169_"/>
				<polygon points="331.145,371.882 331.145,371.389 331.431,371.882 334.327,371.882 &#10;&#9;&#9;&#9;&#9;&#9;333.868,371.089 328.632,371.089 328.632,371.882" style="fill:#EBEBEB;" id="XMLID_5168_"/>
				<rect height="0.793" width="2.513" style="fill:#EBEBEB;" y="371.089" x="345.104" id="XMLID_5167_"/>
				<path d="M353.637,371.882h2.859c-0.112-0.27-0.238-0.534-0.375-0.793h-3.042&#10;&#9;&#9;&#9;&#9;&#9;C353.287,371.345,353.469,371.61,353.637,371.882z" style="fill:#EBEBEB;" id="XMLID_5166_"/>
				<rect height="0.793" width="2.513" style="fill:#EBEBEB;" y="374.917" x="142.878" id="XMLID_5165_"/>
				<path d="M151.033,374.917c-0.14,0.198-0.297,0.388-0.477,0.568&#10;&#9;&#9;&#9;&#9;&#9;c-0.08,0.08-0.162,0.153-0.245,0.224h3.209c0.138-0.255,0.25-0.522,0.351-0.793H151.033z" style="fill:#EBEBEB;" id="XMLID_5164_"/>
				<polygon points="162.97,374.917 163.26,375.71 165.929,375.71 165.64,374.917" style="fill:#EBEBEB;" id="XMLID_5163_"/>
				<polygon points="160.472,374.917 157.793,374.917 157.505,375.71 160.185,375.71" style="fill:#EBEBEB;" id="XMLID_5162_"/>
				<path d="M173.676,374.917h-2.546c-0.019,0.261-0.031,0.524-0.031,0.793l0,0h2.537l0,0&#10;&#9;&#9;&#9;&#9;&#9;C173.636,375.44,173.651,375.176,173.676,374.917z" style="fill:#EBEBEB;" id="XMLID_5161_"/>
				<rect height="0.793" width="10.463" style="fill:#EBEBEB;" y="374.917" x="191.65" id="XMLID_5160_"/>
				<rect height="0.793" width="2.513" style="fill:#EBEBEB;" y="374.917" x="213.674" id="XMLID_5159_"/>
				<rect height="0.793" width="2.525" style="fill:#EBEBEB;" y="374.917" x="223.979" id="XMLID_5158_"/>
				<polygon points="218.228,374.917 218.687,375.71 221.58,375.71 221.122,374.917" style="fill:#EBEBEB;" id="XMLID_5157_"/>
				<path d="M232.415,374.917h-2.544c-0.018,0.253-0.029,0.508-0.029,0.769&#10;&#9;&#9;&#9;&#9;&#9;c0,0.008,0.001,0.016,0.001,0.024h2.538c0-0.008-0.001-0.016-0.001-0.024C232.379,375.424,232.391,375.168,232.415,374.917z" style="fill:#EBEBEB;" id="XMLID_5156_"/>
				<path d="M249.695,374.917h-2.544c0.024,0.251,0.036,0.507,0.036,0.769&#10;&#9;&#9;&#9;&#9;&#9;c0,0.008-0.001,0.016-0.001,0.024h2.538c0-0.008,0.001-0.016,0.001-0.024C249.725,375.425,249.713,375.17,249.695,374.917z" style="fill:#EBEBEB;" id="XMLID_5155_"/>
				<rect height="0.793" width="2.525" style="fill:#EBEBEB;" y="374.917" x="255.502" id="XMLID_5154_"/>
				<rect height="0.793" width="9.346" style="fill:#EBEBEB;" y="374.917" x="273.576" id="XMLID_5153_"/>
				<path d="M288.53,374.917h-2.544c-0.018,0.253-0.029,0.508-0.029,0.769&#10;&#9;&#9;&#9;&#9;&#9;c0,0.008,0.001,0.016,0.001,0.024h2.537c0-0.008-0.001-0.016-0.001-0.024C288.494,375.424,288.507,375.168,288.53,374.917z" style="fill:#EBEBEB;" id="XMLID_5152_"/>
				<path d="M305.811,374.917h-2.544c0.023,0.251,0.036,0.507,0.036,0.769&#10;&#9;&#9;&#9;&#9;&#9;c0,0.008-0.001,0.016-0.001,0.024h2.538c0-0.008,0-0.016,0-0.024C305.84,375.425,305.828,375.17,305.811,374.917z" style="fill:#EBEBEB;" id="XMLID_5151_"/>
				<rect height="0.793" width="2.525" style="fill:#EBEBEB;" y="374.917" x="319.871" id="XMLID_5150_"/>
				<rect height="0.793" width="2.525" style="fill:#EBEBEB;" y="374.917" x="309.19" id="XMLID_5149_"/>
				<rect height="0.793" width="2.513" style="fill:#EBEBEB;" y="374.917" x="326.038" id="XMLID_5148_"/>
				<polygon points="330.592,374.917 331.051,375.71 333.944,375.71 333.486,374.917" style="fill:#EBEBEB;" id="XMLID_5147_"/>
				<rect height="0.793" width="2.525" style="fill:#EBEBEB;" y="374.917" x="336.343" id="XMLID_5146_"/>
				<path d="M352.098,375.71L352.098,375.71h2.537l0,0c0-0.268-0.012-0.532-0.031-0.793&#10;&#9;&#9;&#9;&#9;&#9;h-2.546C352.084,375.176,352.098,375.44,352.098,375.71z" style="fill:#EBEBEB;" id="XMLID_5145_"/>
				<rect height="0.793" width="2.513" style="fill:#EBEBEB;" y="374.917" x="342.509" id="XMLID_5144_"/>
				<path d="M147.986,379.206h2.294c0.777,0,1.502-0.125,2.182-0.36h-6.989v0.793h2.513&#10;&#9;&#9;&#9;&#9;&#9;V379.206z" style="fill:#EBEBEB;" id="XMLID_5143_"/>
				<polygon points="158.959,378.846 158.671,379.639 161.344,379.639 161.631,378.846" style="fill:#EBEBEB;" id="XMLID_5142_"/>
				<polygon points="166.992,378.846 167.281,379.639 169.953,379.639 169.664,378.846" style="fill:#EBEBEB;" id="XMLID_5141_"/>
				<path d="M174.174,378.846c0.088,0.269,0.186,0.534,0.298,0.793h2.877&#10;&#9;&#9;&#9;&#9;&#9;c-0.164-0.257-0.309-0.521-0.437-0.793H174.174z" style="fill:#EBEBEB;" id="XMLID_5140_"/>
				<rect height="0.793" width="2.513" style="fill:#EBEBEB;" y="378.846" x="187.957" id="XMLID_5139_"/>
				<rect height="0.793" width="2.513" style="fill:#EBEBEB;" y="378.846" x="194.245" id="XMLID_5138_"/>
				<polygon points="223.468,378.846 223.926,379.639 226.816,379.639 226.358,378.846" style="fill:#EBEBEB;" id="XMLID_5137_"/>
				<rect height="0.793" width="2.525" style="fill:#EBEBEB;" y="378.846" x="226.945" id="XMLID_5136_"/>
				<rect height="0.793" width="2.513" style="fill:#EBEBEB;" y="378.846" x="216.639" id="XMLID_5135_"/>
				<path d="M249.462,378.846c-0.129,0.272-0.273,0.536-0.438,0.793h2.876&#10;&#9;&#9;&#9;&#9;&#9;c0.113-0.259,0.213-0.524,0.301-0.793H249.462z" style="fill:#EBEBEB;" id="XMLID_5134_"/>
				<path d="M233.297,378.846c0.088,0.269,0.188,0.534,0.301,0.793h2.879&#10;&#9;&#9;&#9;&#9;&#9;c-0.165-0.257-0.31-0.521-0.439-0.793H233.297z" style="fill:#EBEBEB;" id="XMLID_5133_"/>
				<rect height="0.793" width="2.525" style="fill:#EBEBEB;" y="378.846" x="258.468" id="XMLID_5132_"/>
				<rect height="0.793" width="2.513" style="fill:#EBEBEB;" y="378.846" x="276.542" id="XMLID_5131_"/>
				<path d="M289.412,378.846c0.089,0.269,0.189,0.534,0.301,0.793h2.879&#10;&#9;&#9;&#9;&#9;&#9;c-0.165-0.257-0.31-0.521-0.439-0.793H289.412z" style="fill:#EBEBEB;" id="XMLID_5130_"/>
				<path d="M305.578,378.846c-0.129,0.272-0.273,0.536-0.438,0.793h2.876&#10;&#9;&#9;&#9;&#9;&#9;c0.112-0.259,0.213-0.524,0.301-0.793H305.578z" style="fill:#EBEBEB;" id="XMLID_5129_"/>
				<path d="M314.68,378.846h-2.525v0.129c0,0.225,0.01,0.446,0.03,0.664h2.549&#10;&#9;&#9;&#9;&#9;&#9;c-0.033-0.215-0.054-0.435-0.054-0.664V378.846z" style="fill:#EBEBEB;" id="XMLID_5128_"/>
				<path d="M322.837,378.846v0.129c0,0.229-0.021,0.449-0.054,0.664h2.578v-0.793H322.837z" style="fill:#EBEBEB;" id="XMLID_5127_"/>
				<rect height="0.793" width="2.513" style="fill:#EBEBEB;" y="378.846" x="329.003" id="XMLID_5126_"/>
				<polygon points="335.831,378.846 336.29,379.639 339.18,379.639 338.722,378.846" style="fill:#EBEBEB;" id="XMLID_5125_"/>
				<rect height="0.793" width="2.525" style="fill:#EBEBEB;" y="378.846" x="339.309" id="XMLID_5124_"/>
				<rect height="0.793" width="2.513" style="fill:#EBEBEB;" y="378.846" x="345.475" id="XMLID_5123_"/>
				<path d="M353.949,379.639h2.876c0.111-0.259,0.21-0.524,0.297-0.793h-2.737&#10;&#9;&#9;&#9;&#9;&#9;C354.257,379.117,354.113,379.382,353.949,379.639z" style="fill:#EBEBEB;" id="XMLID_5122_"/>
				<rect height="0.393" width="4.539" style="fill:#EBEBEB;" y="369.871" x="145.278" id="XMLID_5121_"/>
				<rect height="0.393" width="4.539" style="fill:#EBEBEB;" y="370.44" x="170.118" id="XMLID_5120_"/>
				<rect height="0.393" width="4.538" style="fill:#EBEBEB;" y="371.686" x="180.035" id="XMLID_5119_"/>
				<rect height="0.393" width="13.418" style="fill:#EBEBEB;" y="369.302" x="193.231" id="XMLID_5118_"/>
				<rect height="0.393" width="13.417" style="fill:#EBEBEB;" y="380.828" x="183.761" id="XMLID_5117_"/>
				<rect height="0.393" width="8.472" style="fill:#EBEBEB;" y="382.49" x="151.962" id="XMLID_5116_"/>
				<rect height="0.393" width="8.472" style="fill:#EBEBEB;" y="376.885" x="208.168" id="XMLID_5115_"/>
				<rect height="0.393" width="8.472" style="fill:#EBEBEB;" y="373.203" x="241.207" id="XMLID_5114_"/>
				<rect height="0.393" width="8.472" style="fill:#EBEBEB;" y="377.154" x="232.663" id="XMLID_5113_"/>
				<rect height="0.393" width="8.472" style="fill:#EBEBEB;" y="376.689" x="270.967" id="XMLID_5112_"/>
				<rect height="0.393" width="8.472" style="fill:#EBEBEB;" y="376.958" x="297.497" id="XMLID_5111_"/>
				<rect height="0.393" width="4.236" style="fill:#EBEBEB;" y="375.317" x="299.692" id="XMLID_5110_"/>
				<rect height="0.393" width="8.472" style="fill:#EBEBEB;" y="373.4" x="289.905" id="XMLID_5109_"/>
				<rect height="0.393" width="5.96" style="fill:#EBEBEB;" y="377.081" x="311.714" id="XMLID_5108_"/>
				<rect height="0.393" width="5.96" style="fill:#EBEBEB;" y="373.203" x="315.978" id="XMLID_5107_"/>
				<rect height="0.393" width="4.338" style="fill:#EBEBEB;" y="372.325" x="331.765" id="XMLID_5106_"/>
				<rect height="0.393" width="4.338" style="fill:#EBEBEB;" y="376.762" x="345.022" id="XMLID_5105_"/>
				<rect height="0.393" width="4.337" style="fill:#EBEBEB;" y="373.4" x="350.911" id="XMLID_5104_"/>
				<rect height="0.393" width="5.015" style="fill:#EBEBEB;" y="381.681" x="145.09" id="XMLID_5103_"/>
			</g>
		</g>
	</g>
</g>
<g id="DESIGNED_BY_FREEPIK">
	<g id="XMLID_1_">
		<g id="XMLID_319_">
			<g id="XMLID_338_">
				<path d="M260.104,465.465c-0.432,0.443-0.803,0.931-1.108,1.453l-0.465-0.241&#10;&#9;&#9;&#9;&#9;&#9;c-0.067-0.298-0.349-0.503-0.659-0.466c-0.331,0.039-0.568,0.339-0.529,0.67s0.339,0.568,0.67,0.529&#10;&#9;&#9;&#9;&#9;&#9;c0.065-0.008,0.127-0.026,0.184-0.052l0.451,0.234c-0.251,0.554-0.433,1.139-0.539,1.744l0.746,0.132&#10;&#9;&#9;&#9;&#9;&#9;c0.23-1.306,0.85-2.507,1.792-3.473L260.104,465.465z" style="fill:#F5F8F9;" id="XMLID_346_"/>
				<path d="M265.592,463.163c-0.171,0-0.341,0.006-0.51,0.017l-0.074-0.626&#10;&#9;&#9;&#9;&#9;&#9;c0.188-0.149,0.296-0.389,0.266-0.645c-0.046-0.393-0.402-0.674-0.795-0.628s-0.674,0.402-0.628,0.795&#10;&#9;&#9;&#9;&#9;&#9;c0.03,0.254,0.189,0.461,0.405,0.564l0.073,0.624c-0.714,0.116-1.403,0.332-2.06,0.646l0.327,0.684&#10;&#9;&#9;&#9;&#9;&#9;c0.934-0.447,1.942-0.673,2.995-0.673c0.496,0,0.993,0.053,1.475,0.158l0.161-0.741&#10;&#9;&#9;&#9;&#9;&#9;C266.693,463.222,266.142,463.163,265.592,463.163z" style="fill:#F5F8F9;" id="XMLID_345_"/>
				<path d="M272.194,465.711c0.331-0.04,0.566-0.341,0.525-0.672&#10;&#9;&#9;&#9;&#9;&#9;c-0.04-0.331-0.341-0.566-0.672-0.526c-0.309,0.038-0.535,0.304-0.53,0.609l-0.416,0.363c-0.418-0.43-0.89-0.813-1.408-1.139&#10;&#9;&#9;&#9;&#9;&#9;l-0.404,0.641c1.134,0.715,2.021,1.726,2.563,2.925l0.691-0.313c-0.251-0.554-0.568-1.072-0.942-1.545l0.402-0.351&#10;&#9;&#9;&#9;&#9;&#9;C272.065,465.716,272.129,465.719,272.194,465.711z" style="fill:#F5F8F9;" id="XMLID_344_"/>
				<path d="M265.044,473.372c-0.386,0.023-0.775,0.035-1.157,0.035&#10;&#9;&#9;&#9;&#9;&#9;c-0.88,0-1.733-0.061-2.478-0.179c-0.39-0.062-0.846-0.155-1.27-0.292c1.046,1.861,3.069,3.125,5.388,3.125&#10;&#9;&#9;&#9;&#9;&#9;c2.855,0,5.262-1.916,5.95-4.504c-0.682,0.449-1.505,0.825-2.459,1.123C267.839,473.047,266.464,473.286,265.044,473.372z" style="fill:#F5F8F9;" id="XMLID_343_"/>
				<path d="M265.592,464.68c-3.352,0-6.08,2.666-6.08,5.943&#10;&#9;&#9;&#9;&#9;&#9;c0,0.426,0.046,0.849,0.137,1.261c0.674,0.483,2.706,0.89,5.348,0.731c2.879-0.173,5.297-0.957,6.672-2.159&#10;&#9;&#9;&#9;&#9;&#9;c-0.005-0.195-0.021-0.39-0.045-0.582C271.244,466.913,268.65,464.68,265.592,464.68z M263.432,471.194&#10;&#9;&#9;&#9;&#9;&#9;c-1.02,0-1.85-0.83-1.85-1.85c0-1.02,0.83-1.85,1.85-1.85c1.02,0,1.85,0.83,1.85,1.85&#10;&#9;&#9;&#9;&#9;&#9;C265.282,470.365,264.452,471.194,263.432,471.194z M268.17,470.286c-0.75,0-1.36-0.61-1.36-1.36s0.61-1.361,1.36-1.361&#10;&#9;&#9;&#9;&#9;&#9;c0.75,0,1.361,0.61,1.361,1.361S268.92,470.286,268.17,470.286z" style="fill:#F5F8F9;" id="XMLID_339_"/>
			</g>
			<path d="M281.595,466.547c-0.295-0.116-0.806-0.309-1.382-0.237&#10;&#9;&#9;&#9;&#9;c-0.551,0.069-0.844,0.341-0.844,1.007v0.866h2.228v1.717h-2.228v5.455h-1.932v-5.455h-1.34v-1.717h1.34v-0.888&#10;&#9;&#9;&#9;&#9;c0-1.68,0.896-2.783,2.568-2.783c0.642,0,1.157,0.122,1.59,0.308L281.595,466.547z" style="fill:#F5F8F9;" id="XMLID_336_"/>
			<path d="M286.298,469.879c-0.177-0.03-0.358-0.046-0.526-0.046&#10;&#9;&#9;&#9;&#9;c-0.896,0-1.51,0.548-1.51,1.614v3.908h-1.932v-7.172h1.873v0.785c0.451-0.673,1.14-0.977,2.021-0.977&#10;&#9;&#9;&#9;&#9;c0.414,0,0.848,0.128,1.094,0.337L286.298,469.879z" style="fill:#F5F8F9;" id="XMLID_334_"/>
			<path d="M293.965,471.757c0,0.222-0.015,0.489-0.037,0.651h-5.085&#10;&#9;&#9;&#9;&#9;c0.207,1.036,0.933,1.488,1.843,1.488c0.622,0,1.295-0.252,1.813-0.688l1.132,1.243c-0.814,0.748-1.85,1.088-3.057,1.088&#10;&#9;&#9;&#9;&#9;c-2.198,0-3.723-1.495-3.723-3.753c0-2.258,1.48-3.797,3.627-3.797C292.544,467.99,293.958,469.522,293.965,471.757z&#10;&#9;&#9;&#9;&#9; M288.851,471.091h3.175c-0.177-0.918-0.733-1.436-1.562-1.436C289.554,469.655,289.021,470.203,288.851,471.091z" style="fill:#F5F8F9;" id="XMLID_331_"/>
			<path d="M301.618,471.757c0,0.222-0.015,0.489-0.037,0.651h-5.085&#10;&#9;&#9;&#9;&#9;c0.207,1.036,0.932,1.488,1.843,1.488c0.622,0,1.295-0.252,1.813-0.688l1.132,1.243c-0.814,0.748-1.85,1.088-3.057,1.088&#10;&#9;&#9;&#9;&#9;c-2.198,0-3.723-1.495-3.723-3.753c0-2.258,1.48-3.797,3.627-3.797C300.197,467.99,301.611,469.522,301.618,471.757z&#10;&#9;&#9;&#9;&#9; M296.504,471.091h3.175c-0.178-0.918-0.733-1.436-1.562-1.436C297.207,469.655,296.674,470.203,296.504,471.091z" style="fill:#F5F8F9;" id="XMLID_328_"/>
			<path d="M309.964,471.764c0,2.154-1.495,3.775-3.471,3.775&#10;&#9;&#9;&#9;&#9;c-0.962,0-1.643-0.378-2.109-0.933v3.708h-1.924v-10.133h1.887v0.792c0.466-0.585,1.155-0.984,2.139-0.984&#10;&#9;&#9;&#9;&#9;C308.469,467.99,309.964,469.61,309.964,471.764z M304.287,471.764c0,1.132,0.747,1.976,1.843,1.976&#10;&#9;&#9;&#9;&#9;c1.14,0,1.85-0.881,1.85-1.976c0-1.095-0.71-1.976-1.85-1.976C305.035,469.788,304.287,470.632,304.287,471.764z" style="fill:#F5F8F9;" id="XMLID_325_"/>
			<path d="M313.068,465.836c0,0.696-0.54,1.229-1.236,1.229&#10;&#9;&#9;&#9;&#9;c-0.696,0-1.229-0.533-1.229-1.229c0-0.696,0.533-1.243,1.229-1.243C312.527,464.592,313.068,465.14,313.068,465.836z&#10;&#9;&#9;&#9;&#9; M312.809,475.354h-1.932v-7.172h1.932V475.354z" style="fill:#F5F8F9;" id="XMLID_322_"/>
			<path d="M316.003,470.668l2.807-2.437l2.366,0.1l-3.618,3.225l3.337,3.942l-2.374-0.101&#10;&#9;&#9;&#9;&#9;l-2.591-3.014l-0.123,2.899l-1.93-0.082l0.451-10.648l1.93,0.082L316.003,470.668z" style="fill:#F5F8F9;" id="XMLID_320_"/>
		</g>
		<g id="XMLID_2_">
			<path d="M184.412,475.289v-1.055c-0.527,0.718-1.391,1.23-2.388,1.23&#10;&#9;&#9;&#9;&#9;c-1.846,0-3.149-1.406-3.149-3.706c0-2.256,1.289-3.721,3.149-3.721c0.952,0,1.816,0.469,2.388,1.245v-3.765h1.099v9.77H184.412z&#10;&#9;&#9;&#9;&#9; M184.412,473.37v-3.208c-0.395-0.615-1.245-1.143-2.124-1.143c-1.421,0-2.27,1.172-2.27,2.739c0,1.567,0.85,2.724,2.27,2.724&#10;&#9;&#9;&#9;&#9;C183.168,474.483,184.017,473.986,184.412,473.37z" style="fill:#F5F8F9;" id="XMLID_3_"/>
			<path d="M186.932,471.744c0-2.051,1.465-3.706,3.486-3.706c2.139,0,3.398,1.67,3.398,3.794&#10;&#9;&#9;&#9;&#9;v0.279h-5.727c0.088,1.333,1.025,2.446,2.549,2.446c0.805,0,1.626-0.322,2.182-0.894l0.527,0.718&#10;&#9;&#9;&#9;&#9;c-0.703,0.703-1.655,1.084-2.812,1.084C188.44,475.465,186.932,473.956,186.932,471.744z M190.403,468.947&#10;&#9;&#9;&#9;&#9;c-1.509,0-2.256,1.274-2.314,2.358h4.643C192.718,470.25,192.015,468.947,190.403,468.947z" style="fill:#F5F8F9;" id="XMLID_6_"/>
			<path d="M194.607,474.351l0.571-0.791c0.469,0.542,1.362,1.011,2.329,1.011&#10;&#9;&#9;&#9;&#9;c1.084,0,1.67-0.513,1.67-1.216c0-1.714-4.38-0.659-4.38-3.281c0-1.098,0.952-2.036,2.636-2.036c1.201,0,2.051,0.454,2.622,1.026&#10;&#9;&#9;&#9;&#9;l-0.513,0.762c-0.424-0.513-1.201-0.894-2.109-0.894c-0.967,0-1.567,0.483-1.567,1.113c0,1.552,4.38,0.527,4.38,3.281&#10;&#9;&#9;&#9;&#9;c0,1.187-0.952,2.138-2.783,2.138C196.306,475.465,195.325,475.113,194.607,474.351z" style="fill:#F5F8F9;" id="XMLID_9_"/>
			<path d="M201.477,466.471c0-0.41,0.337-0.747,0.732-0.747c0.41,0,0.747,0.337,0.747,0.747&#10;&#9;&#9;&#9;&#9;c0,0.41-0.337,0.732-0.747,0.732C201.814,467.203,201.477,466.881,201.477,466.471z M201.667,475.289v-7.075h1.099v7.075H201.667&#10;&#9;&#9;&#9;&#9;z" style="fill:#F5F8F9;" id="XMLID_11_"/>
			<path d="M204.582,477.105l0.556-0.82c0.586,0.703,1.289,0.967,2.3,0.967&#10;&#9;&#9;&#9;&#9;c1.172,0,2.27-0.571,2.27-2.124v-1.011c-0.513,0.718-1.377,1.26-2.373,1.26c-1.845,0-3.149-1.377-3.149-3.662&#10;&#9;&#9;&#9;&#9;c0-2.27,1.289-3.677,3.149-3.677c0.952,0,1.802,0.469,2.373,1.245v-1.069h1.098v6.87c0,2.344-1.641,3.076-3.369,3.076&#10;&#9;&#9;&#9;&#9;C206.237,478.16,205.417,477.926,204.582,477.105z M209.709,473.253v-3.091c-0.381-0.615-1.23-1.143-2.109-1.143&#10;&#9;&#9;&#9;&#9;c-1.421,0-2.27,1.128-2.27,2.695c0,1.553,0.849,2.695,2.27,2.695C208.478,474.41,209.328,473.868,209.709,473.253z" style="fill:#F5F8F9;" id="XMLID_14_"/>
			<path d="M217.413,475.289v-4.629c0-1.245-0.63-1.641-1.582-1.641&#10;&#9;&#9;&#9;&#9;c-0.865,0-1.685,0.527-2.095,1.099v5.17h-1.099v-7.075h1.099v1.025c0.498-0.586,1.465-1.201,2.519-1.201&#10;&#9;&#9;&#9;&#9;c1.48,0,2.256,0.747,2.256,2.285v4.966H217.413z" style="fill:#F5F8F9;" id="XMLID_17_"/>
			<path d="M219.932,471.744c0-2.051,1.465-3.706,3.486-3.706c2.139,0,3.398,1.67,3.398,3.794&#10;&#9;&#9;&#9;&#9;v0.279h-5.727c0.088,1.333,1.025,2.446,2.549,2.446c0.806,0,1.626-0.322,2.183-0.894l0.527,0.718&#10;&#9;&#9;&#9;&#9;c-0.703,0.703-1.655,1.084-2.812,1.084C221.441,475.465,219.932,473.956,219.932,471.744z M223.404,468.947&#10;&#9;&#9;&#9;&#9;c-1.509,0-2.256,1.274-2.314,2.358h4.643C225.718,470.25,225.015,468.947,223.404,468.947z" style="fill:#F5F8F9;" id="XMLID_19_"/>
			<path d="M233.35,475.289v-1.055c-0.527,0.718-1.392,1.23-2.388,1.23&#10;&#9;&#9;&#9;&#9;c-1.846,0-3.149-1.406-3.149-3.706c0-2.256,1.289-3.721,3.149-3.721c0.952,0,1.817,0.469,2.388,1.245v-3.765h1.098v9.77H233.35z&#10;&#9;&#9;&#9;&#9; M233.35,473.37v-3.208c-0.396-0.615-1.245-1.143-2.124-1.143c-1.421,0-2.27,1.172-2.27,2.739c0,1.567,0.849,2.724,2.27,2.724&#10;&#9;&#9;&#9;&#9;C232.105,474.483,232.954,473.986,233.35,473.37z" style="fill:#F5F8F9;" id="XMLID_22_"/>
			<path d="M239.692,475.289v-9.77h1.098v3.765c0.572-0.776,1.421-1.245,2.388-1.245&#10;&#9;&#9;&#9;&#9;c1.845,0,3.149,1.465,3.149,3.721c0,2.299-1.304,3.706-3.149,3.706c-0.996,0-1.86-0.513-2.388-1.23v1.055H239.692z&#10;&#9;&#9;&#9;&#9; M242.9,474.483c1.436,0,2.285-1.157,2.285-2.724c0-1.568-0.85-2.739-2.285-2.739c-0.864,0-1.728,0.527-2.109,1.143v3.208&#10;&#9;&#9;&#9;&#9;C241.171,473.986,242.036,474.483,242.9,474.483z" style="fill:#F5F8F9;" id="XMLID_25_"/>
			<path d="M247.528,477.061c0.161,0.073,0.425,0.117,0.601,0.117&#10;&#9;&#9;&#9;&#9;c0.483,0,0.805-0.161,1.055-0.747l0.469-1.069l-2.959-7.148h1.187l2.358,5.8l2.344-5.8h1.201l-3.545,8.51&#10;&#9;&#9;&#9;&#9;c-0.425,1.025-1.143,1.421-2.08,1.435c-0.234,0-0.601-0.044-0.805-0.103L247.528,477.061z" style="fill:#F5F8F9;" id="XMLID_28_"/>
		</g>
	</g>
</g>
</svg>